<?xml version="1.0" encoding="utf-8"?>
<!-- Svg Vector Icons : http://www.onlinewebfonts.com/icon -->
<!DOCTYPE svg PUBLIC "-//W3C//DTD SVG 1.1//EN" "http://www.w3.org/Graphics/SVG/1.1/DTD/svg11.dtd">
<svg version="1.1" xmlns="http://www.w3.org/2000/svg" xmlns:xlink="http://www.w3.org/1999/xlink" x="0px" y="0px" viewBox="0 0 1000 1000" enable-background="new 0 0 1000 1000" xml:space="preserve">
<metadata> Svg Vector Icons : http://www.onlinewebfonts.com/icon </metadata>
<g><path d="M624.6,118.3H375.4c-8.8,0-15.9,7.1-15.9,15.9v731.6c0,8.8,7.1,15.9,15.9,15.9h249.2c8.8,0,15.9-7.1,15.9-15.9V134.2C640.4,125.4,633.3,118.3,624.6,118.3z M500,742.2c-30.6,0-55.4-24.8-55.4-55.4c0-30.6,24.8-55.4,55.4-55.4c30.6,0,55.4,24.8,55.4,55.4C555.4,717.4,530.6,742.2,500,742.2z M602,459.2c0,8.8-7.1,15.9-15.9,15.9H413.9c-8.8,0-15.9-7.1-15.9-15.9v-15.9c0-8.8,7.1-15.9,15.9-15.9h172.2c8.8,0,15.9,7.1,15.9,15.9V459.2z M602,379.9c0,8.8-7.1,15.9-15.9,15.9H413.9c-8.8,0-15.9-7.1-15.9-15.9V364c0-8.8,7.1-15.9,15.9-15.9h172.2c8.8,0,15.9,7.1,15.9,15.9V379.9z M602,300.6c0,8.8-7.1,15.9-15.9,15.9H413.9c-8.8,0-15.9-7.1-15.9-15.9v-15.9c0-8.8,7.1-15.9,15.9-15.9h172.2c8.8,0,15.9,7.1,15.9,15.9V300.6z M602,221.2c0,8.8-7.1,15.9-15.9,15.9H413.9c-8.8,0-15.9-7.1-15.9-15.9v-15.9c0-8.8,7.1-15.9,15.9-15.9h172.2c8.8,0,15.9,7.1,15.9,15.9V221.2L602,221.2z"/><path d="M990,202.8c0-7.5-6.3-14.1-14.1-14.8c-73.9-6.7-147.8-13.4-221.6-20.1c-0.8-0.1-3.1,0-5.6,0.7l-86.4,21.8v678.6l89.4,12.6c1.1,0.2,2.5,0,2.6,0c73.9-6.7,147.8-14.2,221.6-20.9c7.8-0.7,14.1-7.3,14.1-14.9C990,673.3,990,375.4,990,202.8L990,202.8z M774.3,249.3c0-8,6.3-14.1,14.1-13.5c51.1,3.6,102.1,7.2,153.2,10.8c7.8,0.6,14.1,7.1,14.1,14.7V275c0,7.6-6.3,13.4-14.1,12.9c-51-2.9-102.1-5.8-153.2-8.7c-7.8-0.5-14.1-7.3-14.1-15.3V249.3L774.3,249.3z M955.7,480.6c0,7.6-6.3,13.8-14.1,13.8c-51,0.6-102.1,1.1-153.2,1.7c-7.8,0.1-14.1-6.3-14.1-14.4v-14.5c0-8,6.3-14.5,14.1-14.5c51.1,0.2,102.1,0.3,153.2,0.4c7.8,0,14.1,6.2,14.1,13.8V480.6z M941.6,425.6c-51-0.6-102.1-1.2-153.2-1.8c-7.8-0.1-14.1-6.7-14.1-14.7v-14.5c0-8,6.3-14.4,14.1-14.2c51.1,1.3,102.1,2.6,153.2,3.9c7.8,0.2,14.1,6.5,14.1,14.1c0,5.5,0,8.2,0,13.7C955.7,419.6,949.4,425.7,941.6,425.6z M955.7,343.5c0,7.6-6.3,13.5-14.1,13.2c-51-1.7-102.1-3.5-153.2-5.3c-7.8-0.3-14.1-7-14.1-15V322c0-8,6.3-14.2,14.1-13.8c51.1,2.4,102.1,4.9,153.2,7.4c7.8,0.4,14.1,6.8,14.1,14.4V343.5L955.7,343.5z"/><path d="M245.7,167.8c-73.9,6.7-147.8,13.4-221.6,20.1c-7.8,0.7-14.1,7.3-14.1,14.8c0,172.6,0,470.4,0,643c0,7.5,6.3,14.1,14.1,14.9c73.9,6.7,147.8,14.2,221.6,20.9c0.1,0,1.5,0.2,2.6,0l89.4-12.6V190.3l-86.4-21.8C248.9,167.8,246.6,167.7,245.7,167.8L245.7,167.8z M225.6,481.7c0,8-6.3,14.5-14.1,14.4c-51.1-0.6-102.1-1.1-153.2-1.7c-7.8-0.1-14.1-6.3-14.1-13.8v-13.7c0-7.6,6.3-13.7,14.1-13.8c51.1-0.1,102.1-0.3,153.2-0.4c7.8,0,14.1,6.5,14.1,14.5V481.7z M225.6,409.1c0,8-6.3,14.6-14.1,14.7c-51.1,0.6-102.1,1.2-153.2,1.8c-7.8,0.1-14.1-6-14.1-13.5c0-5.5,0-8.2,0-13.7c0-7.6,6.3-13.9,14.1-14.1c51.1-1.3,102.1-2.6,153.2-3.9c7.8-0.2,14.1,6.1,14.1,14.2V409.1z M225.6,336.4c0,8-6.3,14.8-14.1,15c-51.1,1.7-102.1,3.5-153.2,5.3c-7.8,0.2-14.1-5.7-14.1-13.2v-13.7c0-7.6,6.3-14,14.1-14.4c51.1-2.4,102.1-4.9,153.2-7.4c7.8-0.4,14.1,5.8,14.1,13.8V336.4L225.6,336.4z M225.6,263.8c0,8-6.3,14.9-14.1,15.3c-51.1,2.9-102.1,5.8-153.2,8.7c-7.8,0.4-14.1-5.4-14.1-12.9v-13.7c0-7.6,6.3-14.1,14.1-14.7c51.1-3.6,102.1-7.2,153.2-10.8c7.8-0.6,14.1,5.5,14.1,13.5V263.8L225.6,263.8z"/></g>
</svg>