<svg xmlns="http://www.w3.org/2000/svg" xmlns:xlink="http://www.w3.org/1999/xlink" version="1.1" width="346.8947360000452" height="425.9999996862913" enable-background="new 0 0 500 500" xml:space="preserve" style=""><rect id="backgroundrect" width="100%" height="100%" x="0" y="0" fill="none" stroke="none" class="" style=""/>




<g class="currentLayer" style=""><title>Layer 1</title><g id="Layer_4" class="selected">
	
		<ellipse fill="#331E09" stroke="#000000" stroke-width="0.5" stroke-miterlimit="10" cx="243.8089566230774" cy="341.12877798080444" rx="10.956999778747559" ry="5.139999866485596" id="svg_1"/>
	<path fill="#F9C89A" stroke="#000000" stroke-width="0.5" stroke-miterlimit="10" d="M161.78494563674926,320.7687896995544 c0,0 4.363,18.614 4.944,24.142 c0.5830000000000002,5.526 11.635,8.145 12.798,1.745 c1.1640000000000001,-6.399 5.236,-22.105 5.236,-22.105 L161.78494563674926,320.7687896995544 z" id="svg_2"/>
	<path fill="#F9C89A" stroke="#000000" stroke-width="0.5" stroke-miterlimit="10" d="M231.30294563674926,324.8407896995544 c0,0 5.816,13.962 5.816,21.814 c0,7.854 13.961,9.017 15.125,3.781 c1.163,-5.235 2.908,-25.887 2.908,-25.887 L231.30294563674926,324.8407896995544 z" id="svg_3"/>
	<path fill="#A15813" stroke="#000000" stroke-width="0.5" stroke-miterlimit="10" d="M178.84994563674925,337.34678969955445 c-2.327,0.971 -8.92,1.746 -11.441,0.777 c-2.52,-0.9690000000000002 0.19500000000000006,9.113 0.97,12.217 c0.775,3.103 8.919,2.521 8.919,2.521 L178.84994563674925,337.34678969955445 z" id="svg_4"/>
	
		<ellipse fill="#4F2E0E" stroke="#000000" stroke-width="0.5" stroke-miterlimit="10" cx="165.05794954299927" cy="345.3457884788513" rx="4.872000217437744" ry="11.63599967956543" id="svg_5"/>
	
		<ellipse fill="#4F2E0E" stroke="#000000" stroke-width="0.5" stroke-miterlimit="10" cx="180.32793855667114" cy="346.5837950706482" rx="5.01800012588501" ry="11.416000366210938" id="svg_6"/>
	<path fill="#9E5613" stroke="#000000" stroke-width="0.5" stroke-miterlimit="10" d="M146.22394563674928,379.08678969955446 c0,0 0,-6.107 -0.14600000000000005,-13.67 c-0.14500000000000005,-7.562 7.854,-17.161 24.142,-16.725 c16.289,0.4360000000000001 23.851,9.453 23.851,18.179 s-0.7280000000000002,15.707 -1.601,17.452 c-0.8730000000000002,1.745 -42.611,2.327 -44.21,0.7280000000000002 C146.65994563674926,383.44978969955446 146.22394563674928,379.08678969955446 146.22394563674928,379.08678969955446 z" id="svg_7"/>
	<path fill="#4F2E0E" stroke="#000000" stroke-width="0.5" stroke-miterlimit="10" d="M146.22394563674928,390.86678969955443 c-2.763,-0.7270000000000002 -3.781,-3.636 -3.927,-6.398 c-0.14500000000000005,-2.7640000000000002 2.182,-5.091 3.927,-5.382 c1.308,1.746 3.926,2.474 6.253,2.909 c2.327,0.4360000000000001 32.141,0.7270000000000002 35.63,0.4360000000000001 c3.49,-0.2910000000000001 4.363,-2.326 4.946,-3.197 c2.473,0.8710000000000002 3.489,3.488 3.6350000000000002,5.96 c0.14600000000000005,2.475 -1.018,4.801 -3.49,5.673 c-2.472,0.8720000000000002 -15.562,2.909 -24.578,2.763 C159.60294563674927,393.4847896995544 146.22394563674928,390.86678969955443 146.22394563674928,390.86678969955443 z" id="svg_8"/>
	<path fill="#9E5613" stroke="#000000" stroke-width="0.5" stroke-miterlimit="10" d="M254.71694563674924,343.7467896995544 c0,0 -7.854,4.6530000000000005 -17.889,1.1640000000000001 c-6.5440000000000005,-0.8730000000000002 -8.289,-0.8730000000000002 -8.145,2.327 c0.14600000000000005,3.199 1.019,11.926 -2.035,15.561 c-3.055,3.636 -6.255,13.089 -1.601,17.452 c4.654,4.362 71.988,3.927 74.607,3.199 c2.616,-0.7280000000000002 4.218,-5.382 4.218,-5.382 s0.8710000000000002,-9.889 0.5810000000000002,-15.124 c-0.2920000000000001,-5.235 -7.562,-14.834 -19.925,-14.397 c-12.361,0.4370000000000001 -17.451,9.162 -22.978,10.325 c-4.654,-4.362 -6.399,-9.452 -6.399,-10.472 C255.15194563674925,347.38278969955445 254.71694563674924,343.7467896995544 254.71694563674924,343.7467896995544 z" id="svg_9"/>
	<path fill="#4F2E0E" stroke="#000000" stroke-width="0.5" stroke-miterlimit="10" d="M239.66394563674925,359.67078969955446 c4.363,0 7.489,-1.963 7.854,-6.472 c0.3620000000000001,-4.508 -0.7270000000000002,-6.98 -3.928,-7.198 c-3.198,-0.21800000000000005 -7.126,-0.8730000000000002 -9.016,-2.108 c-1.891,-1.237 -2.109,-3.491 -1.3090000000000002,-4.437 c0.8,-0.9450000000000002 2.181,-1.8170000000000002 2.181,-1.8170000000000002 l-0.509,-1.381 c0,0 -7.199,2.763 -6.5440000000000005,10.47 C229.04694563674929,354.43578969955445 232.90094563674927,359.67078969955446 239.66394563674925,359.67078969955446 z" id="svg_10"/>
	<path fill="#4F2E0E" stroke="#000000" stroke-width="0.5" stroke-miterlimit="10" d="M247.59094563674927,346.0017896995544 c2.398,0.9450000000000002 2.907,2.7640000000000002 2.545,4.727 c-0.3640000000000001,1.9620000000000002 -1.1640000000000001,7.636 2.98,7.417 c4.146,-0.21900000000000006 5.236,-8.29 4.873,-11.998 c-0.3650000000000001,-3.71 -2.7640000000000002,-7.272 -3.854,-8.145 c-0.14600000000000005,0.5810000000000002 -0.21800000000000005,1.091 -0.21800000000000005,1.091 s0.8240000000000002,0.5810000000000002 0.8490000000000002,2.036 C254.78794563674927,342.5837896995544 252.3159456367493,345.3457896995544 247.59094563674927,346.0017896995544 z" id="svg_11"/>
	<path fill="none" stroke="#000000" stroke-width="0.5" stroke-miterlimit="10" d="M261.5519456367493,358.8717896995544 c-2.229,4.849 -4.363,20.363 -2.424,24.626 " id="svg_12"/>
	<path fill="#4F2E0E" stroke="#000000" stroke-width="0.5" stroke-miterlimit="10" d="M225.04794563674926,380.25078969955445 c0,0 -3.346,2.036 -3.054,5.234 c0.2910000000000001,3.2 2.763,3.928 6.399,4.801 c3.636,0.8720000000000002 38.103,1.8900000000000001 44.356,2.181 c6.253,0.2910000000000001 27.632,-1.3090000000000002 31.268,-2.763 c3.636,-1.455 6.836,-7.854 -0.14500000000000005,-11.636 c-2.765,3.055 -4.945,3.637 -9.454,4.219 c-4.508,0.5820000000000002 -25.597,0.7270000000000002 -34.322,0.4360000000000001 s-29.812,-0.5820000000000002 -31.995,-0.7270000000000002 C225.92094563674925,381.84978969955444 225.04794563674926,380.25078969955445 225.04794563674926,380.25078969955445 z" id="svg_13"/>
</g><g id="Layer_2" class="selected">
	<path fill="#F9C89A" stroke="#000000" stroke-width="0.5" stroke-miterlimit="10" d="M209.63294563674924,116.72778969955445 c-1.019,1.163 -5.817,6.69 -3.491,11.343 c2.327,4.655 15.561,25.015 15.561,25.015 s29.232,-14.834 28.361,-21.815 c-0.8750000000000002,-6.981 -6.836,-15.27 -6.836,-15.27 L209.63294563674924,116.72778969955445 z" id="svg_14"/>
	<path fill="#F9C89A" stroke="#000000" stroke-width="0.5" stroke-miterlimit="10" d="M281.5229456367493,222.35878969955445 c0.971,-0.9690000000000002 3.101,-5.72 -2.6180000000000003,-7.466 c-4.556,-0.5820000000000002 -7.853,1.552 -8.822,2.619 c-0.9690000000000002,1.066 2.035,6.787 3.8770000000000002,6.98 C275.8039456367493,224.68578969955445 281.5229456367493,222.35878969955445 281.5229456367493,222.35878969955445 z" id="svg_15"/>
	<path fill="#F9C89A" stroke="#000000" stroke-width="0.5" stroke-miterlimit="10" d="M285.4989456367493,227.59478969955444 c0.8730000000000002,-1.26 2.715,-4.46 -1.5510000000000002,-6.593 c-4.268,-2.132 -9.988,0.09800000000000006 -11.442,2.327 c-1.453,2.23 2.424,7.175 3.201,7.175 C276.48294563674926,230.50378969955443 285.4989456367493,227.59478969955444 285.4989456367493,227.59478969955444 z" id="svg_16"/>
	<path fill="#F9C89A" stroke="#000000" stroke-width="0.5" stroke-miterlimit="10" d="M275.9489456367493,204.13178969955445 l-5.381,9.454 c0,0 3.005,3.927 4.168,8.871 c1.163,4.945 -0.776,6.69 0.8720000000000002,6.399 c1.649,-0.2910000000000001 11.248,-2.908 13.09,-1.746 c1.8410000000000002,1.1640000000000001 4.363,5.915 2.6180000000000003,9.114 c-1.746,3.2 -6.787,9.792 -13.865,11.538 c-7.077,1.745 -15.608,-1.455 -18.809,-5.915 c-3.2,-4.459 -8.24,-18.809 -8.436,-21.33 c-0.19300000000000006,-2.521 3.2,-10.18 3.2,-10.18 l13.186,-5.914 L275.9489456367493,204.13178969955445 z" id="svg_17"/>
	<path fill="#F9C89A" stroke="#000000" stroke-width="0.5" stroke-miterlimit="10" d="M269.1139456367493,212.85778969955444 c2.423,1.357 6.303,4.363 7.271,9.502 c0.97,5.139 -1.066,11.635 -4.362,14.35 " id="svg_18"/>
	<path fill="#F9C89A" stroke="#000000" stroke-width="0.5" stroke-miterlimit="10" d="M285.7899456367493,235.73878969955445 c0,0 -2.3280000000000003,3.298 -7.758,2.521 c-5.429,-0.776 -5.041,-7.562 -2.424,-9.404 c2.619,-1.843 6.786,-3.2960000000000003 9.601,-2.8120000000000003 c2.8120000000000003,0.4850000000000001 4.167,1.745 4.167,1.745 " id="svg_19"/>
	<path fill="#F9C89A" stroke="#000000" stroke-width="0.5" stroke-miterlimit="10" d="M278.4219456367493,230.21278969955443 l2.617,4.848 c0,0 -1.6500000000000004,1.357 -3.588,0.4840000000000001 c-1.9380000000000002,-0.8720000000000002 -1.939,-2.327 -1.455,-3.587 C276.48294563674926,230.69778969955445 278.4219456367493,230.21278969955443 278.4219456367493,230.21278969955443 z" id="svg_20"/>
	<path fill="#6D9758" stroke="#000000" stroke-width="0.5" stroke-miterlimit="10" d="M258.5449456367493,125.30778969955446 c0,0 10.764,5.6720000000000015 12.509,12.653 c5.235,1.745 11.392,9.428 10.811,15.052 c5.623,2.327 8.119,5.587 8.119,9.271 c3.104,2.715 7.744,9.678 2.121,19.761 s-8.927,17.055 -8.927,17.055 l-22.495,-1.944 l-1.94,-6.79 l10.471,-19.392 c0,0 -4.654,-7.562 -10.085,-7.757 c-1.356,5.817 -2.714,14.155 -2.714,14.155 l0.5810000000000002,31.995 l-2.908,1.745 l-0.5820000000000002,7.175 l7.175,14.931000000000001 l2.521,2.327 l-6.594,10.278 l1.553,2.909 l8.919,21.912 l-0.19400000000000006,2.715 l5.237,6.786 l-0.19500000000000006,2.908 l2.909,7.175 l-5.6240000000000006,12.798 l-3.491,6.98 l3.297,10.083 c0,0 -9.113,8.339 -24.239,8.145 c-15.123,-0.19300000000000006 -25.401,-7.9510000000000005 -25.401,-7.9510000000000005 l-2.908,-1.7440000000000002 c0,0 3.297,-19.002 2.521,-29.668 c-0.776,-10.665000000000001 -3.104,-26.76 -3.104,-30.444 s-0.9690000000000002,-14.155 -0.9690000000000002,-14.155 s-1.359,22.3 -1.553,33.546 c-0.19300000000000006,11.247 -1.745,26.565 -3.6830000000000007,29.667 c-1.94,3.104 -4.072,4.072 -4.072,4.072 l2.132,3.686 l0.5820000000000002,4.458 l-2.327,2.91 l-4.267,-1.165 c0,0 -8.337,9.697000000000001 -23.462,7.953 c-15.125,-1.746 -24.432,-9.308 -25.402,-15.514 c-3.49,-2.521 -3.878,-4.266 -3.878,-4.266 l9.89,-11.441 l-5.6240000000000006,-3.2960000000000003 l4.654,-8.339 c0,0 3.297,-8.145 3.878,-10.859 c0.5810000000000002,-2.716 2.327,-9.307 2.327,-9.307 l-4.848,0.19300000000000006 l7.95,-12.409 l-0.5810000000000002,-8.533 l14.542,-30.831 l-0.5820000000000002,-5.042 l-1.951,-2.715 l-1.5870000000000002,-10.762 l1.019,-5.818 c0,0 5.029,-6.107 5.611,-11.149000000000001 c0.5820000000000002,-5.042 -2.417,-10.083 -2.417,-10.083 l-33.981,22.299 l-4.87,0.3880000000000001 l-13.973,6.205 l-3.303,-1.358 c0,0 -1.166,-1.9380000000000002 -1.554,-5.041 c-0.3870000000000001,-3.104 -0.0010000000000000005,-17.064 1.162,-19.003 c1.1640000000000001,-1.939 3.8770000000000002,-1.939 3.8770000000000002,-1.939 s4.46,-0.775 7.9510000000000005,-3.103 c3.491,-2.327 25.014,-18.228 30.249,-22.3 c5.236,-4.072 23.463,-19.778 23.463,-19.778 s6.205,-4.848 9.695,-6.011 c3.49,-1.1640000000000001 5.815,-0.971 5.815,-0.971 l0.19500000000000006,16.677 l15.706,17.791 l17.065,-10.229 l13.574,-12.604 L258.5449456367493,125.30778969955446 z" id="svg_21"/>
	<path fill="#6D9758" stroke="#000000" stroke-width="0.5" stroke-miterlimit="10" d="M207.01494563674925,117.30878969955444 l-2.327,1.455 l-10.036,16.724 l10.909,1.019 l-3.927,7.562 l20.651,10.907 l1.7440000000000002,-2.036 c0,0 -11.488,-14.106 -14.979,-18.469 c-3.49,-4.363 -4.509,-14.107 -0.5820000000000002,-16.725 S207.01494563674925,117.30878969955444 207.01494563674925,117.30878969955444 " id="svg_22"/>
	<path fill="#6D9758" stroke="#000000" stroke-width="0.5" stroke-miterlimit="10" d="M216.3209456367493,157.23078969955444 l31.196,-5.199 l-3.673,-13.289 l13.344,1.6910000000000005 l1.1640000000000001,-15.417 l-13.816,-8.871 l-1.3090000000000002,-0.14500000000000005 c0,0 3.346,4.363 3.489,9.744 c0.14600000000000005,5.38 -4.798,9.453 -8.870000000000001,12.943 C233.77394563674926,142.17778969955444 216.3209456367493,157.23078969955444 216.3209456367493,157.23078969955444 z" id="svg_23"/>
	<polygon fill="#6D9758" stroke="#000000" stroke-width="0.5" stroke-miterlimit="10" points="258.64194536209106,161.08478498458862 260.82395219802856,172.13678693771362 241.48094987869263,184.49878644943237 237.9899525642395,167.91878461837769 " id="svg_24"/>
	<polyline fill="#6D9758" stroke="#000000" stroke-width="0.5" stroke-miterlimit="10" points="215.69194841384888,157.5937876701355 216.46794939041138,202.77478742599487 212.974937915802,215.5727915763855 212.78392839431763,227.98378705978394 212.20192766189575,240.19979047775269 214.9169545173645,244.27178144454956 222.28493547439575,242.525794506073 " id="svg_25"/>
	<polygon fill="#6D9758" stroke="#000000" stroke-width="0.5" stroke-miterlimit="10" points="224.4179310798645,212.85779523849487 225.19194841384888,218.28778791427612 236.63494157791138,220.4197916984558 235.85793352127075,213.82778120040894 " id="svg_26"/>
	<polyline fill="#6D9758" stroke="#000000" stroke-width="0.5" stroke-miterlimit="10" points="254.08695268630981,211.1127848625183 244.00295305252075,213.6337809562683 245.359947681427,220.4197916984558 253.50495195388794,218.28778791427612 " id="svg_27"/>
	<polygon fill="#6D9758" stroke="#000000" stroke-width="0.5" stroke-miterlimit="10" points="210.8449330329895,212.275794506073 211.23094987869263,219.25678205490112 200.95494890213013,218.28778791427612 202.11895036697388,211.50078535079956 " id="svg_28"/>
	<polyline fill="#6D9758" stroke="#000000" stroke-width="0.5" stroke-miterlimit="10" points="180.59394121170044,209.75579023361206 193.19794511795044,210.1437907218933 192.61594438552856,217.317786693573 181.17594194412231,215.5727915763855 " id="svg_29"/>
	<polygon fill="#6D9758" stroke="#000000" stroke-width="0.5" stroke-miterlimit="10" points="181.17594194412231,169.22878217697144 202.31093645095825,185.71079206466675 208.71193742752075,170.00379133224487 186.02394914627075,160.50278425216675 " id="svg_30"/>
	<path fill="#6D9758" stroke="#000000" stroke-width="0.5" stroke-miterlimit="10" d="M283.36594563674925,203.98678969955444 c0,0 0,-6.254 1.891,-8.726 c-4.654,-2.037 -15.852,-6.5440000000000005 -21.96,-5.817 c-2.909,3.49 -8.094,13.67 -6.302,19.924 C263.7319456367493,207.04078969955444 283.36594563674925,203.98678969955444 283.36594563674925,203.98678969955444 z" id="svg_31"/>
	<path fill="#6D9758" stroke="#000000" stroke-width="0.5" stroke-miterlimit="10" d="M136.33394563674926,166.90078969955445 l6.689,9.744 l4.218,10.908 c0,0 -2.6180000000000003,3.6350000000000002 -5.526,4.944 c-2.91,1.31 -13.283,5.6240000000000006 -13.283,5.6240000000000006 l-3.2960000000000003,-1.358 c0,0 3.054,-1.9380000000000002 3.49,-12.991 c0.4360000000000001,-11.053 -2.326,-12.507 -2.326,-12.507 l6.5440000000000005,-2.473 L136.33394563674926,166.90078969955445 z" id="svg_32"/>
	<path fill="#6D9758" stroke="#000000" stroke-width="0.5" stroke-miterlimit="10" d="M235.0829456367493,269.4297896995544 c0,0 4.217,14.688 10.326,24.143 c3.053,-2.035 24.287,-3.49 29.426,-3.345 " id="svg_33"/>
	<path fill="none" stroke="#000000" stroke-width="0.5" stroke-miterlimit="10" d="M153.25294563674927,294.8817896995544 c3.878,1.018 20.312,3.3440000000000003 20.312,3.3440000000000003 s8.872,2.182 13.671,0.14600000000000005 c2.472,-5.527 9.889,-31.123 9.889,-31.123 s-7.126,-8.29 -13.525,-9.598 c-6.399,-1.31 -16.433,-4.8 -16.433,-4.8 " id="svg_34"/>
	<path fill="#6D9758" stroke="#000000" stroke-width="0.5" stroke-miterlimit="10" d="M164.11194563674925,266.37778969955446 c3.49,-0.4370000000000001 20.796,0 30.686,7.125 " id="svg_35"/>
	
		<line fill="none" stroke="#000000" stroke-width="0.5" stroke-miterlimit="10" x1="158.87594270706177" y1="298.1777892112732" x2="161.63995027542114" y2="307.8247923851013" id="svg_36"/>
	<path fill="#6D9758" stroke="#000000" stroke-width="0.5" stroke-miterlimit="10" d="M153.49494563674926,313.7877896995544 c6.5440000000000005,4.6530000000000005 23.706,13.963000000000001 46.829,3.637 " id="svg_37"/>
	<path fill="none" stroke="#000000" stroke-width="0.5" stroke-miterlimit="10" d="M220.10394563674924,320.62378969955444 c7.997,3.198 27.775,4.071 38.103,-1.745 " id="svg_38"/>
	<path fill="#6D9758" stroke="#000000" stroke-width="0.5" stroke-miterlimit="10" d="M254.13494563674925,317.27878969955447 c10.324,3.345 25.306,3.927 27.05,0.2900000000000001 c1.745,-3.636 -15.465,-7.562 -15.465,-7.562 " id="svg_39"/>
	<path fill="#6D9758" stroke="#000000" stroke-width="0.5" stroke-miterlimit="10" d="M246.28094563674927,310.73378969955445 c12.651,1.8900000000000001 26.905,-0.5820000000000002 26.905,-4.945 c0,-4.362 -19.488,-3.7800000000000002 -19.488,-3.7800000000000002 " id="svg_40"/>
	<path fill="#6D9758" stroke="#000000" stroke-width="0.5" stroke-miterlimit="10" d="M257.6239456367493,248.34278969955443 c4.219,5.091 7.418,9.89 11.054,11.054 c-8.726,1.454 -29.668,5.817 -32.868,9.451 c-1.453,-3.3440000000000003 -2.617,-5.089 -4.507,-6.398 C235.0829456367493,257.3597896995544 257.6239456367493,248.34278969955443 257.6239456367493,248.34278969955443 z" id="svg_41"/>
	<path fill="#F9C89A" stroke="#000000" stroke-width="0.5" stroke-miterlimit="10" d="M127.17194563674926,174.02678969955446 c-5.236,-0.5820000000000002 -15.998,-2.763 -19.924,-12.943 c-2.472,-5.09 -6.5440000000000005,-5.962 -8.435,-7.272 c-2.473,-2.181 -5.963,-3.781 -10.908,-3.054 c-4.945,0.7270000000000002 -12.798,-0.4370000000000001 -17.743,-3.345 c-4.944,-2.909 -10.18,-1.018 -11.925,1.455 c-1.745,2.472 -1.891,5.962 -0.14600000000000005,7.853 c1.745,1.891 2.909,3.055 2.909,3.055 s-6.835,1.018 -7.417,6.108 c-0.5820000000000002,5.09 3.054,7.562 5.38,8.581 c2.327,1.018 4.363,1.1640000000000001 4.363,1.1640000000000001 s-2.617,3.49 -0.7270000000000002,6.834 c1.8900000000000001,3.346 6.545,4.8 6.545,4.8 s2.181,3.054 4.508,3.49 c2.327,0.4360000000000001 16.434,1.1640000000000001 16.434,1.1640000000000001 s5.816,-2.181 9.162,-2.472 c3.345,-0.2920000000000001 11.198,-0.4370000000000001 13.816,0.7270000000000002 c2.6180000000000003,1.163 14.107,1.454 14.107,1.454 s1.454,-6.254 1.3090000000000002,-9.599 C128.33494563674927,178.68178969955446 127.17194563674926,174.02678969955446 127.17194563674926,174.02678969955446 z" id="svg_42"/>
	<linearGradient id="SVGID_1_" x1="-0.000009108390649466288" y1="0.4999987099981166" x2="0.9999899907795061" y2="0.4999987099981166" transform="translate(-7.8947367668151855,-4.6052632331848145) translate(-48.02631759643555,5.921052932739258) ">
		<stop offset="0" style="stop-color:#442B1F"/>
		<stop offset="1" style="stop-color:#442B1F"/>
	</linearGradient>
	<path fill="url(#SVGID_1_)" d="M106.13394563674927,328.81478969955447 c-7.95,0.775 -50.222,-0.5820000000000002 -58.754,-5.6240000000000006 c0.5820000000000002,29.087 8.726,54.876 13.961,60.5 c5.235,5.6240000000000006 21.524,10.471 38.395,10.471 c16.869,0 27.212,-5.067 22.881,-11.828 C109.81794563674927,362.36078969955446 106.13394563674927,328.81478969955447 106.13394563674927,328.81478969955447 z" id="svg_43"/>
	<linearGradient id="SVGID_2_" x1="-0.000017129593942975583" y1="0.5" x2="1" y2="0.5" transform="translate(-7.8947367668151855,-4.6052632331848145) translate(-48.02631759643555,5.921052932739258) ">
		<stop offset="0" style="stop-color:#C8B091"/>
		<stop offset="0.1987" style="stop-color:#C5A788"/>
		<stop offset="0.529" style="stop-color:#BC8E6E"/>
		<stop offset="0.9479" style="stop-color:#AD6745"/>
		<stop offset="0.9944" style="stop-color:#AB6240"/>
	</linearGradient>
	<path fill="url(#SVGID_2_)" stroke="#000000" stroke-miterlimit="10" d="M87.57894563674927,364.68878969955443 V105.81578969955444 h-12.471 c0,0 0.3130000000000001,211.461 0.3130000000000001,222.514 s0.3140000000000001,19.196 1.569,23.852 c1.255,4.6530000000000005 5.293,10.762 7.177,11.634 C86.05194563674928,364.68778969955446 87.57894563674927,364.68878969955443 87.57894563674927,364.68878969955443 z" id="svg_44"/>
	<linearGradient id="SVGID_3_" x1="0" y1="0.5000272773711888" x2="1.0000283568080444" y2="0.5000272773711888" transform="translate(-7.8947367668151855,-4.6052632331848145) translate(-48.02631759643555,5.921052932739258) ">
		<stop offset="0" style="stop-color:#88786F"/>
		<stop offset="0.1054" style="stop-color:#806F66"/>
		<stop offset="0.2806" style="stop-color:#6B574C"/>
		<stop offset="0.5027" style="stop-color:#493023"/>
		<stop offset="0.6219" style="stop-color:#34180A"/>
		<stop offset="1" style="stop-color:#3E2316"/>
	</linearGradient>
	<path fill="url(#SVGID_3_)" d="M86.74194563674928,333.31578969955444 h-10.665000000000001 c0,0 0,15.879 1.357,18.207 c1.842,0.09800000000000006 9.405,0.253 9.405,0.253 L86.74194563674928,333.31578969955444 z" id="svg_45"/>
	<path fill="#F9C89A" stroke="#000000" stroke-width="0.5" stroke-miterlimit="10" d="M71.42394563674927,165.25378969955443 c0,0 -3.2,5.526 -3.006,7.271 c0.19400000000000006,1.746 6.206,0.4860000000000001 6.593,-1.745 C75.39794563674926,168.54978969955445 71.42394563674927,165.25378969955443 71.42394563674927,165.25378969955443 z" id="svg_46"/>
	<path fill="#F9C89A" stroke="#000000" stroke-width="0.5" stroke-miterlimit="10" d="M74.52494563674927,191.04378969955445 c2.619,0.14500000000000005 7.417,0.4370000000000001 9.163,-1.8920000000000003 c1.745,-2.326 5.962,-4.508 5.962,-7.125 s-0.7270000000000002,-4.072 -3.3440000000000003,-6.108 c-2.6180000000000003,-2.036 -15.416,2.91 -16.144,4.217 c-0.7270000000000002,1.31 -1.745,4.945 -1.308,5.963 c0.4360000000000001,1.017 1.308,2.909 2.617,3.781 C72.77994563674926,190.75278969955446 74.52494563674927,191.04378969955445 74.52494563674927,191.04378969955445 z" id="svg_47"/>
	<path fill="#F9C89A" stroke="#000000" stroke-width="0.5" stroke-miterlimit="10" d="M82.08794563674925,180.28078969955445 l3.49,2.472 c0,0 3.491,-2.763 0.2920000000000001,-4.799 c-3.2,-2.036 -4.072,1.018 -4.072,1.018 L82.08794563674925,180.28078969955445 z" id="svg_48"/>
	<path fill="#F9C89A" stroke="#000000" stroke-width="0.5" stroke-miterlimit="10" d="M67.15694563674927,186.58278969955444 c1.745,0.4850000000000001 1.553,1.649 6.012,0.4850000000000001 c4.459,-1.163 9.501,-5.042 10.956,-8.532 c1.454,-3.491 -6.689,-9.211 -10.083,-8.435 c-3.395,0.775 -9.211,3.587 -10.714,5.526 c-1.502,1.9380000000000002 -1.7930000000000001,5.719 -0.8240000000000002,7.174 C63.47294563674927,184.25578969955444 67.15694563674927,186.58278969955444 67.15694563674927,186.58278969955444 z" id="svg_49"/>
	<path fill="#F9C89A" stroke="#000000" stroke-width="0.5" stroke-miterlimit="10" d="M82.95994563674927,159.53278969955446 c-1.066,-1.5510000000000002 -2.132,-4.654 -3.49,-5.527 c-1.357,-0.8730000000000002 -5.816,-4.363 -7.174,-5.235 c-1.358,-0.8730000000000002 -5.527,-4.072 -9.114,-3.103 s-6.883,3.006 -6.399,7.853 c0.4840000000000001,4.848 3.587,5.333 5.235,6.981 c1.6480000000000001,1.6480000000000001 3.976,3.976 5.333,4.751 c1.357,0.776 5.235,2.6180000000000003 8.144,2.909 c2.909,0.2910000000000001 5.719,-1.552 6.787,-3.394 C83.34894563674928,162.92678969955443 82.95994563674927,159.53278969955446 82.95994563674927,159.53278969955446 z" id="svg_50"/>
	<path fill="#F9C89A" stroke="#000000" stroke-width="0.5" stroke-miterlimit="10" d="M77.24094563674927,156.62478969955444 l-4.944,8.144 c0,0 5.396,1.9889999999999999 7.368,-0.97 C82.37894563674928,159.72678969955444 77.24094563674927,156.62478969955444 77.24094563674927,156.62478969955444 z" id="svg_51"/>
	<path fill="#F9C89A" stroke="#000000" stroke-width="0.5" stroke-miterlimit="10" d="M90.08694563674928,152.21278969955443 c-4.364,1.3090000000000002 -15.271,11.343 -17.452,16.725 c-2.182,5.381 -1.454,10.035 2.909,11.78 c4.363,1.745 10.762,-2.181 12.507,-5.38 c1.745,-3.2 4.508,-13.525 4.508,-13.525 " id="svg_52"/>
	<path fill="#F9C89A" stroke="#000000" stroke-width="0.5" stroke-miterlimit="10" d="M75.49594563674927,170.10178969955444 l9.792,4.944 c0,0 -1.455,2.714 -4.459,3.103 c-3.005,0.3880000000000001 -6.398,-2.036 -6.496,-4.072 C74.23494563674927,172.04078969955444 75.49594563674927,170.10178969955444 75.49594563674927,170.10178969955444 z" id="svg_53"/>
	<path fill="#F9C89A" stroke="#000000" stroke-width="0.5" stroke-miterlimit="10" d="M90.42694563674928,169.22878969955445 c0.9690000000000002,1.745 6.302,6.787 9.21,7.078 " id="svg_54"/>
	<path fill="#F9C89A" stroke="#000000" stroke-width="0.5" stroke-miterlimit="10" d="M98.76394563674927,189.49178969955443 c2.036,-0.4840000000000001 3.394,-1.6480000000000001 4.654,-2.6180000000000003 " id="svg_55"/>
	<linearGradient id="SVGID_4_" x1="-0.00006584159348487144" y1="0.49998665807553894" x2="1.0000679634417124" y2="0.49998665807553894" transform="translate(-7.8947367668151855,-4.6052632331848145) translate(-48.02631759643555,5.921052932739258) ">
		<stop offset="0" style="stop-color:#F8FB9B"/>
		<stop offset="0.1255" style="stop-color:#F5F892"/>
		<stop offset="0.3343" style="stop-color:#EFEF78"/>
		<stop offset="0.6005" style="stop-color:#E3E14F"/>
		<stop offset="0.9108" style="stop-color:#D4CE16"/>
		<stop offset="1" style="stop-color:#CFC804"/>
	</linearGradient>
	<circle fill="url(#SVGID_4_)" stroke="#000000" stroke-width="0.5" stroke-miterlimit="10" cx="224.97494173049927" cy="162.75678396224976" r="3.7079999446868896" id="svg_56"/>
	<circle fill="none" stroke="#000000" stroke-width="0.1" stroke-miterlimit="10" cx="224.9499478340149" cy="162.7327971458435" r="2.9079999923706055" id="svg_57"/>
	<linearGradient id="SVGID_5_" x1="0.00005349629470645805" y1="0.49997225522696415" x2="0.9999198198563715" y2="0.49997225522696415" transform="translate(-7.8947367668151855,-4.6052632331848145) translate(-48.02631759643555,5.921052932739258) ">
		<stop offset="0" style="stop-color:#F8FB9B"/>
		<stop offset="0.1255" style="stop-color:#F5F892"/>
		<stop offset="0.3343" style="stop-color:#EFEF78"/>
		<stop offset="0.6005" style="stop-color:#E3E14F"/>
		<stop offset="0.9108" style="stop-color:#D4CE16"/>
		<stop offset="1" style="stop-color:#CFC804"/>
	</linearGradient>
	<circle fill="url(#SVGID_5_)" stroke="#000000" stroke-width="0.5" stroke-miterlimit="10" cx="223.81194734573364" cy="183.6987853050232" r="3.7079999446868896" id="svg_58"/>
	<circle fill="none" stroke="#000000" stroke-width="0.1" stroke-miterlimit="10" cx="223.78695344924927" cy="183.67379140853882" r="2.9089999198913574" id="svg_59"/>
	<linearGradient id="SVGID_6_" x1="0.00005759585885774813" y1="0.5000266766533772" x2="1.000041011336999" y2="0.5000266766533772" transform="translate(-7.8947367668151855,-4.6052632331848145) translate(-48.02631759643555,5.921052932739258) ">
		<stop offset="0" style="stop-color:#F8FB9B"/>
		<stop offset="0.1255" style="stop-color:#F5F892"/>
		<stop offset="0.3343" style="stop-color:#EFEF78"/>
		<stop offset="0.6005" style="stop-color:#E3E14F"/>
		<stop offset="0.9108" style="stop-color:#D4CE16"/>
		<stop offset="1" style="stop-color:#CFC804"/>
	</linearGradient>
	<circle fill="url(#SVGID_6_)" stroke="#000000" stroke-width="0.5" stroke-miterlimit="10" cx="222.6479458808899" cy="204.64078664779663" r="3.7090001106262207" id="svg_60"/>
	<circle fill="none" stroke="#000000" stroke-width="0.1" stroke-miterlimit="10" cx="222.62395906448364" cy="204.61678457260132" r="2.9089999198913574" id="svg_61"/>
</g><g id="head" class="selected">
	<path fill="#F9C89A" stroke="#000000" stroke-width="0.5" stroke-miterlimit="10" d="M195.62094563674927,78.76978969955444 l-3.199,-0.8730000000000002 c0,0 -1.745,0.3880000000000001 -1.552,1.262 c0.19500000000000006,0.8720000000000002 1.455,1.939 1.357,3.49 c-0.09500000000000006,1.5510000000000002 -0.2910000000000001,4.556 0.8750000000000002,6.496 c1.162,1.939 3.975,4.848 5.429,5.623 s1.842,-0.3880000000000001 1.842,-0.3880000000000001 s1.356,13.961 1.746,15.416 c0.3880000000000001,1.454 2.424,5.042 5.72,7.854 s8.921,9.21 11.538,11.149000000000001 c2.6180000000000003,1.939 11.246,3.588 14.931000000000001,-0.19400000000000006 c3.684,-3.781 11.635,-12.507 12.507,-13.768 c0.8730000000000002,-1.26 3.3930000000000002,-4.266 3.297,-5.43 c-0.09700000000000006,-1.1640000000000001 -0.4840000000000001,-13.574 -0.4840000000000001,-14.059 c0.5810000000000002,0.19400000000000006 1.8410000000000002,-0.4840000000000001 2.52,-1.066 c0.6810000000000004,-0.5820000000000002 4.945,-5.236 4.849,-7.272 s-1.358,-7.659 -0.8720000000000002,-8.047 c0.4840000000000001,-0.3880000000000001 1.162,-1.939 0.2910000000000001,-2.327 c-0.8730000000000002,-0.3890000000000001 -6.012,3.3930000000000002 -6.012,3.3930000000000002 s-1.042,-13.258 -5.815,-16.676000000000002 c-4.776,-3.417 -43.438,-5.817 -45.764,-2.715 C196.49494563674926,63.742789699554436 195.62094563674927,78.76978969955444 195.62094563674927,78.76978969955444 z" id="svg_62"/>
	<polygon points="202.53594255447388,94.8637843132019 201.40395402908325,92.39178419113159 199.724937915802,85.72579145431519 194.67194414138794,78.369788646698 194.078941822052,67.71678876876831 194.078941822052,65.68078565597534 208.08495378494263,61.12378644943237 204.03392839431763,67.23278760910034 200.94194841384888,76.83078718185425 200.78392839431763,81.2907862663269 202.078941822052,83.61778974533081 202.078941822052,90.11278486251831 " id="svg_63"/>
	<path fill="#161616" stroke="#000000" stroke-width="0.5" stroke-miterlimit="10" d="M253.40694563674924,72.80678969955444 c10.035,6.5440000000000005 -3.054,4.654 -13.815,1.018 c-10.763,-3.636 -32.286,-9.89 -37.232,-10.035 c-4.943,-0.14600000000000005 32.724,-3.055 38.54,-1.1640000000000001 C246.71694563674924,64.51678969955444 253.40694563674924,72.80678969955444 253.40694563674924,72.80678969955444 z" id="svg_64"/>
	<linearGradient id="SVGID_7_" x1="0.5000010744462304" y1="0.9999866945262816" x2="0.5000010744462304" y2="-0.000022056381433132574" transform="translate(-7.8947367668151855,-4.6052632331848145) translate(-48.02631759643555,5.921052932739258) ">
		<stop offset="0.3724" style="stop-color:#1D2739"/>
		<stop offset="0.9944" style="stop-color:#1D2739"/>
	</linearGradient>
	<path fill="url(#SVGID_7_)" stroke="#000000" stroke-width="0.5" stroke-miterlimit="10" d="M191.64694563674928,62.57878969955445 c-12.41,-6.011 -12.41,-13.767 0.776,-22.105 c13.186,-8.338000000000001 37.231,-8.726 48.476,-5.6240000000000006 c11.247,3.103 28.698,14.155 26.566,25.015 c-2.132,8.337 -11.829,10.471 -11.829,10.471 L191.64694563674928,62.57878969955445 z" id="svg_65"/>
	<path fill="#03468B" stroke="#000000" stroke-width="0.5" stroke-miterlimit="10" d="M192.76294563674927,66.69878969955444 c0,0 -0.8750000000000002,-4.508 -1.456,-6.5440000000000005 c17.889,-10.617 50.901,-10.908 65.735,7.126 c-0.4370000000000001,1.308 -2.326,4.508 -3.636,5.526 C227.95694563674925,53.900789699554444 192.76294563674927,66.69878969955444 192.76294563674927,66.69878969955444 z" id="svg_66"/>
	<polygon fill="#FFFFFF" points="225.77394914627075,58.845786571502686 225.48293352127075,60.58978986740112 213.557945728302,59.5727915763855 222.28493547439575,51.718791484832764 216.32094621658325,51.428786754608154 216.46794939041138,49.53778791427612 227.37395524978638,50.846789836883545 219.08593034744263,57.972793102264404 " id="svg_67"/>
	<path fill="#FFFFFF" d="M236.60894563674924,52.37378969955444 c3.2720000000000002,1.891 4.364,4.944 3.2,7.562 c-1.163,2.6180000000000003 -5.382,2.835 -7.198,2.254 c-1.819,-0.5820000000000002 -6.037,-3.345 -4.072,-7.708 C229.84694563674924,51.93778969955444 233.33694563674925,50.482789699554445 236.60894563674924,52.37378969955444 zM230.66894563674924,55.66178969955445 c-1.205,2.677 1.383,4.372 2.499,4.729 c1.115,0.3570000000000001 3.702,0.22200000000000006 4.416,-1.3820000000000001 c0.7140000000000002,-1.606 0.04600000000000002,-3.48 -1.964,-4.641 C233.6139456367493,53.207789699554446 231.47094563674926,54.09978969955444 230.66894563674924,55.66178969955445 z" id="svg_68"/>
	<path fill="#FFFFFF" d="M247.65094563674927,55.653789699554444 c3.012,1.6030000000000002 4.454,4.764 3.977,7.759 c-0.4780000000000001,2.9939999999999998 -3.8810000000000002,3.8040000000000003 -5.472,3.4210000000000003 c-1.589,-0.3840000000000001 -5.531,-2.8040000000000003 -4.714,-7.798 C242.05294563674926,56.09978969955444 244.6379456367493,54.04878969955444 247.65094563674927,55.653789699554444 zM243.39494563674924,60.02278969955444 c-0.504,3.065 1.9180000000000001,4.55 2.89,4.786 c0.979,0.234 3.063,-0.262 3.357,-2.098 c0.2930000000000001,-1.838 -0.5910000000000002,-3.777 -2.439,-4.763 C245.35594563674925,56.96378969955445 243.7679456367493,58.220789699554444 243.39494563674924,60.02278969955444 z" id="svg_69"/>
	<polygon points="247.078941822052,94.76678419113159 248.6899495124817,92.43978834152222 249.35294389724731,84.2957911491394 252.3979573249817,78.7697901725769 252.65995073318481,75.56978559494019 247.265953540802,74.79478406906128 248.54294633865356,81.58178663253784 246.74294328689575,86.52678632736206 247.078941822052,91.95578718185425 " id="svg_70"/>
	<path fill="none" stroke="#000000" stroke-miterlimit="10" d="M244.77894563674926,82.93978969955444 c-0.97,-0.5830000000000002 -3.394,-2.909 -4.557,-2.909 c-1.1640000000000001,0 -4.364,0.97 -5.817,1.066 c-1.455,0.09800000000000006 -5.914,1.8410000000000002 -6.303,2.229 " id="svg_71"/>
	<path fill="none" stroke="#000000" stroke-miterlimit="10" d="M218.11594563674925,83.52078969955444 c-0.9690000000000002,0 -3.878,-0.9690000000000002 -4.46,-1.26 c-0.5810000000000002,-0.2920000000000001 -3.49,-0.19400000000000006 -3.49,-0.19400000000000006 l-2.229,-1.455 l-3.006,2.8120000000000003 " id="svg_72"/>
	<path fill="none" stroke="#000000" stroke-width="0.5" stroke-miterlimit="10" d="M219.86094563674925,86.33178969955445 c0.6790000000000004,0.3880000000000001 2.231,2.521 2.135,3.684 c-0.09900000000000006,1.1640000000000001 -1.747,12.313 -1.553,12.604 s3.781,0.8720000000000002 4.267,0.4850000000000001 " id="svg_73"/>
	<path fill="none" stroke="#000000" stroke-width="0.5" stroke-miterlimit="10" d="M227.32694563674926,101.94178969955445 c0.6790000000000004,-0.09700000000000006 1.552,-0.2910000000000001 2.229,0.5820000000000002 " id="svg_74"/>
	<path fill="none" stroke="#000000" stroke-width="0.5" stroke-miterlimit="10" d="M217.72794563674927,88.07678969955444 c-1.6470000000000002,-3.49 -8.34,-3.49 -10.859,0.09800000000000006 " id="svg_75"/>
	<path fill="none" stroke="#000000" stroke-width="0.5" stroke-miterlimit="10" d="M230.23594563674925,88.36778969955445 c0.774,-4.265 10.567,-5.138 12.699,-0.8720000000000002 " id="svg_76"/>
	<ellipse cx="212.49294710159302" cy="88.02878713607788" rx="3.00600004196167" ry="2.375" id="svg_77"/>
	<ellipse cx="236.19793367385864" cy="87.05979299545288" rx="3.1510000228881836" ry="2.4719998836517334" id="svg_78"/>
	<path fill="#D8D8D8" stroke="#000000" stroke-width="0.5" stroke-miterlimit="10" d="M213.9459456367493,109.31078969955445 c4.655,5.914 18.519,5.72 21.695,-0.97 c-1.067,0.2910000000000001 -2.7520000000000002,0.921 -2.7520000000000002,0.921 s-5.758,0.24300000000000005 -7.018,0.922 c-0.8710000000000002,0 -2.035,0.19300000000000006 -2.035,0.19300000000000006 s-5.721,-0.776 -6.594,-0.19300000000000006 C216.37094563674924,110.76478969955444 213.9459456367493,109.31078969955445 213.9459456367493,109.31078969955445 z" id="svg_79"/>
	<path fill="none" stroke="#000000" stroke-width="0.5" stroke-miterlimit="10" d="M232.3689456367493,113.96378969955444 c-3.104,3.684 -11.054,3.587 -14.253,0.775 " id="svg_80"/>
	<path fill="#FCFCFC" d="M233.09594563674926,86.67078969955445 l3.5860000000000003,0.4370000000000001 c0,0 -2.182,0.97 -3.054,1.357 C233.04694563674929,87.88378969955444 233.09594563674926,86.67078969955445 233.09594563674926,86.67078969955445 z" id="svg_81"/>
	<path fill="#FCFCFC" d="M209.82694563674926,87.83478969955445 l3.5860000000000003,0.4370000000000001 c0,0 -2.182,0.97 -3.053,1.358 C209.77794563674928,89.04678969955444 209.82694563674926,87.83478969955445 209.82694563674926,87.83478969955445 z" id="svg_82"/>
	<path fill="none" stroke="#000000" stroke-width="0.5" stroke-miterlimit="10" d="M253.98794563674926,80.51478969955444 c-0.6530000000000002,1.163 -2.544,3.563 -2.6900000000000004,4.726 c-0.14500000000000005,1.1640000000000001 0.8,4.145 0.7280000000000002,4.727 " id="svg_83"/>
	<path fill="none" stroke="#000000" stroke-width="0.5" stroke-miterlimit="10" d="M253.18894563674928,87.78678969955445 c-0.14600000000000005,-0.8 -0.6550000000000002,-2.981 -1.455,-3.418 " id="svg_84"/>
	<path fill="none" stroke="#000000" stroke-width="0.5" stroke-miterlimit="10" d="M193.63494563674928,80.44178969955445 c0.7280000000000002,1.019 4.436,4.072 4.58,5.309 c0.14700000000000005,1.236 -0.799,3.127 -0.509,4.217 c0.2910000000000001,1.091 1.019,2.763 1.019,2.763 " id="svg_85"/>
	<path fill="none" stroke="#000000" stroke-width="0.5" stroke-miterlimit="10" d="M196.32594563674928,88.87778969955444 c-0.21900000000000006,-1.163 0.07200000000000002,-3.709 1.162,-4 " id="svg_86"/>
</g></g></svg>