<svg xmlns="http://www.w3.org/2000/svg" version="1.1" x="0" y="0" viewBox="0 0 360.6 172.7" xml:space="preserve"><!-- Simple SSL logo by Jason @ freakdesign --><style type="text/css">.st0{fill:#B1B4C7;}</style><path class="st0" d="M0 172.7h124.1V85.2H0V172.7zM43.9 122.1l11.7 11.7 27.1-27.1 8.7 8.7 -35.8 35.8 -20.4-20.4L43.9 122.1zM36.6 46.4C36.6 32.4 48 21 62.1 21c14 0 25.4 11.4 25.4 25.4v26.3h21V46.4C108.4 20.8 87.6 0 62.1 0 36.5 0 15.7 20.8 15.7 46.4v26.3h21V46.4zM225.8 77.6c0-12.6-7.4-19.8-19.1-24.2l-10.8-4.6c-8.6-3.1-14.6-5.2-14.6-10.5 0-5.2 4.5-8.1 11.2-8.1 8.7 0 14.3 2.6 20.5 7.1l10.2-12.7c-8.1-7.6-18.8-11.7-29.6-11.7 -19.2 0-32.6 11.7-32.6 26.5 0 13 9 20.6 19 24.3l11.5 4.9c8.5 3.5 13.8 5.2 13.8 11.5 0 4.5-4 7.8-12.5 7.8 -8.6 0-16.9-3.8-23.6-9.3l-11.6 13.8c9.5 8.5 21.8 12.8 33.8 12.8C213.4 105.2 225.8 92.3 225.8 77.6zM274.9 53.4l-10.8-4.6c-8.6-3.1-14.6-5.2-14.6-10.5 0-5.2 4.5-8.1 11.2-8.1 8.7 0 14.3 2.6 20.5 7.1l10.2-12.7c-8.1-7.6-18.8-11.7-29.6-11.7 -19.2 0-32.6 11.7-32.6 26.5 0 13 9 20.6 19 24.3l11.5 4.9c8.5 3.5 13.8 5.2 13.8 11.5 0 4.5-4 7.8-12.5 7.8 -8.6 0-16.9-3.8-23.6-9.3l-11.6 13.8c9.5 8.5 21.8 12.8 33.8 12.8 22.1 0 34.5-12.8 34.5-27.6C294 65 286.7 57.8 274.9 53.4z"/><polygon class="st0" points="321.7 86.6 321.7 14.5 301.7 14.5 301.7 103.5 361.3 103.5 361.3 86.6 "/><path class="st0" d="M176.5 135.1l-5.4-2.3c-3.3-1.4-6.9-2.7-6.9-6.4 0-3.5 3-5.6 7.5-5.6 4 0 6.9 1.4 9.5 3.6l2.6-3.2c-2.8-2.8-7-4.8-11.9-4.8 -7.3 0-12.6 4.3-12.6 10.2 0 5.6 4.5 8.4 8.3 9.9l5.5 2.4c3.9 1.7 6.9 2.9 6.9 7 0 3.6-3.1 6.1-8.4 6.1 -4.4 0-8.4-1.9-11.3-4.8l-2.9 3.4c3.5 3.5 8.3 5.7 14 5.7 8.5 0 13.6-4.9 13.6-11C185 139.6 181.2 137 176.5 135.1z"/><polygon class="st0" points="200.3 137.5 216.3 137.5 216.3 133.3 200.3 133.3 200.3 121.2 219.2 121.2 219.2 117.1 195.4 117.1 195.4 155.6 219.8 155.6 219.8 151.4 200.3 151.4 "/><path class="st0" d="M244.9 152c-7.4 0-12.2-6.1-12.2-15.8 0-9.6 4.8-15.6 12.2-15.6 3.2 0 5.8 1.4 7.7 3.5l2.8-3.1c-2.2-2.5-5.9-4.7-10.5-4.7 -10 0-17.3 7.6-17.3 20 0 12.6 7.3 20 16.8 20 5.1 0 8.9-2.1 11.9-5.6l-2.8-3C251.2 150.5 248.5 152 244.9 152zM284.9 141.2c0 8-3.5 10.9-8.2 10.9 -4.6 0-8.1-2.9-8.1-10.9v-24.1h-4.9v24c0 11 5.5 15.3 13 15.3 7.5 0 12.9-4.2 12.9-15.3v-24h-4.8V141.2zM325.6 127.9c0-8-5.6-10.8-13.4-10.8h-12v38.5h4.9v-16.3h6.9l9.3 16.3h5.6l-9.8-16.8C322.1 137.5 325.6 133.9 325.6 127.9zM311.4 135.3H305V121h6.4c6 0 9.3 1.8 9.3 6.9C320.7 132.9 317.4 135.3 311.4 135.3z"/><polygon class="st0" points="341.1 137.5 357.1 137.5 357.1 133.3 341.1 133.3 341.1 121.2 360 121.2 360 117.1 336.1 117.1 336.1 155.6 360.6 155.6 360.6 151.4 341.1 151.4 "/></svg>