<?xml version="1.0" encoding="iso-8859-1"?>
<!-- Generator: Adobe Illustrator 18.0.0, SVG Export Plug-In . SVG Version: 6.00 Build 0)  -->
<!DOCTYPE svg PUBLIC "-//W3C//DTD SVG 1.1//EN" "http://www.w3.org/Graphics/SVG/1.1/DTD/svg11.dtd">
<svg version="1.1" id="Capa_1" xmlns="http://www.w3.org/2000/svg" xmlns:xlink="http://www.w3.org/1999/xlink" x="0px" y="0px"
	 viewBox="0 0 297 297" style="enable-background:new 0 0 297 297;" xml:space="preserve">
<g>
	<g>
		<path style="fill:#C63C22;" d="M261.214,208.578c47.715-47.715,47.715-125.076,0-172.791s-125.076-47.715-172.792,0
			C68.735,55.473,57.18,80.208,53.738,105.824l137.438,137.438C216.792,239.821,241.527,228.265,261.214,208.578z"/>
	</g>
	<g style="opacity:0.3;">
		<path style="fill:#C63C22;" d="M261.214,35.786c-19.86-19.86-44.858-31.446-70.715-34.774
			c16.202,5.916,31.405,15.366,44.404,28.366c47.715,47.715,47.715,125.076,0,172.791c-15.417,15.417-33.936,25.824-53.544,31.276
			l9.816,9.816c25.616-3.441,50.351-14.997,70.038-34.684C308.929,160.863,308.929,83.501,261.214,35.786z"/>
	</g>
	<g>
		<path style="fill:#F86E51;" d="M191.176,243.262L53.738,105.824c-3.269,24.33,0.793,49.453,12.18,71.806
			c0.067,0.131,0.12,0.266,0.183,0.398l52.871,52.871c0.132,0.063,0.267,0.116,0.398,0.183
			C141.723,242.469,166.846,246.531,191.176,243.262z"/>
	</g>
	<g style="opacity:0.43;">
		<path style="fill:#F86E51;" d="M181.274,233.36c-24.665,2.966-50.029-1.296-72.657-12.823c-0.005-0.002-0.009-0.004-0.014-0.006
			l10.369,10.369c0.132,0.063,0.267,0.116,0.398,0.183c22.353,11.386,47.475,15.449,71.806,12.18L181.274,233.36z"/>
	</g>
	<g>
		<path style="fill:#935733;" d="M62.804,197.169L2.931,257.043c-3.907,3.907-3.907,10.243,0,14.15l22.877,22.877
			c3.907,3.907,10.243,3.907,14.15,0l59.873-59.873c5.051-5.051,12.723-6.358,19.141-3.297l-52.871-52.871
			C69.162,184.446,67.855,192.119,62.804,197.169z"/>
	</g>
	<g style="opacity:0.24;">
		<path style="fill:#935733;" d="M43.53,272.39c-3.907,3.908-10.243,3.908-14.15,0L8.482,251.492l-5.551,5.551
			c-3.907,3.907-3.907,10.243,0,14.15l22.877,22.876c3.907,3.907,10.243,3.907,14.15,0l59.874-59.873
			c5.051-5.051,12.723-6.358,19.141-3.297l-16.976-16.976L43.53,272.39z"/>
	</g>
	<g>
		<circle style="fill:#ECF0F1;" cx="118.427" cy="84.591" r="33.836"/>
	</g>
	<g style="opacity:0.35;">
		<path style="fill:#BDC3C7;" d="M132.347,53.753c1.92,4.247,2.998,8.956,2.998,13.92c0,18.687-15.149,33.836-33.836,33.836
			c-4.964,0-9.673-1.078-13.92-2.998c5.309,11.741,17.115,19.916,30.838,19.916c18.687,0,33.836-15.149,33.836-33.836
			C152.263,70.867,144.089,59.061,132.347,53.753z"/>
	</g>
</g>
<g>
</g>
<g>
</g>
<g>
</g>
<g>
</g>
<g>
</g>
<g>
</g>
<g>
</g>
<g>
</g>
<g>
</g>
<g>
</g>
<g>
</g>
<g>
</g>
<g>
</g>
<g>
</g>
<g>
</g>
</svg>
