<svg xmlns="http://www.w3.org/2000/svg" viewBox="0 0 115.5 42.7" enable-background="new 0 0 115.5 42.7"><path fill="#506db3" d="m0 23.5h19.2v19.2h-19.2z"/><path d="m12.6 33.8c-.6.5-1.5.8-2.6.8h-2.1v3.7h-2.2v-10.4h4.5c1 0 1.8.3 2.5.8.6.5.9 1.4.9 2.5-.1 1.2-.4 2.1-1 2.6m-1.6-3.8c-.3-.2-.7-.3-1.2-.3h-2v3.1h2c.5 0 .9-.1 1.2-.4.3-.2.4-.6.4-1.2 0-.6-.2-.9-.4-1.2" fill="#fff"/><path fill="#56c1af" d="m24.1 23.5h19.2v19.2h-19.2z"/><path d="m36 28.1c.4.2.7.4 1 .7.2.3.4.6.5.9.1.3.2.7.2 1.1 0 .5-.1 1-.4 1.5-.2.5-.7.8-1.2 1 .5.2.8.5 1 .8.2.4.3.9.3 1.6v.7c0 .5 0 .8.1 1 .1.3.2.5.4.6v.3h-2.4c-.1-.2-.1-.4-.1-.6-.1-.3-.1-.6-.1-.9v-1c0-.7-.1-1.1-.3-1.3-.2-.2-.6-.3-1.2-.3h-2.1v4.1h-2.1v-10.4h5c.5 0 1.1.1 1.4.2m-4.4 1.6v2.8h2.3c.5 0 .8-.1 1-.2.4-.2.6-.6.6-1.2 0-.6-.2-1.1-.6-1.3-.2-.1-.6-.2-1-.2h-2.3z" fill="#fff"/><path fill="#83c456" d="m48.1 23.5h19.2v19.2h-19.2z"/><path d="m61.1 37.4c-.8.8-1.9 1.2-3.4 1.2-1.5 0-2.6-.4-3.4-1.2-1.1-1-1.6-2.4-1.6-4.3 0-1.9.5-3.3 1.6-4.3.8-.8 1.9-1.2 3.4-1.2 1.5 0 2.6.4 3.4 1.2 1 1 1.6 2.4 1.6 4.3 0 1.8-.5 3.3-1.6 4.3m-1.3-1.6c.5-.6.8-1.5.8-2.7 0-1.2-.3-2.1-.8-2.7-.5-.6-1.2-1-2-1s-1.5.3-2.1 1c-.5.6-.8 1.5-.8 2.7s.3 2.1.8 2.7c.5.6 1.2 1 2.1 1s1.5-.4 2-1" fill="#fff"/><path fill="#f3d350" d="m72.2 23.5h19.2v19.2h-19.2z"/><path d="m79.7 38.3h-2.5l3.3-5.3-3.2-5.1h2.6l1.9 3.4 1.9-3.4h2.5l-3.2 5 3.4 5.4h-2.6l-2-3.5-2.1 3.5" fill="#fff"/><path fill="#e94f5a" d="m96.2 23.5h19.2v19.2h-19.2z"/><path d="m108 27.9h2.5l-3.5 6.5v3.9h-2.2v-3.9l-3.6-6.5h2.6l2.2 4.5 2-4.5" fill="#fff"/><path fill="#506db3" d="m36.1 0h19.2v19.2h-19.2z"/><path d="M41.5,14.8V4.4h2.2v4h4v-4h2.2v10.4h-2.2v-4.6h-4v4.6H41.5z" fill="#fff"/><path fill="#e94f5a" d="m60.1 0h19.2v19.2h-19.2z"/><path d="m68.5 4.4h2.5l3.7 10.4h-2.4l-.7-2.1h-3.8l-.7 2.1h-2.3l3.7-10.4m-.1 6.5h2.7l-1.3-4.1-1.4 4.1" fill="#fff"/></svg>