<svg id="svg" version="1.1" width="400" height="482.3529411764706" viewBox="0 0 400 482.3529411764706" xmlns="http://www.w3.org/2000/svg" xmlns:xlink="http://www.w3.org/1999/xlink" ><g id="svgg"><path id="path0" d="M0.000 49.800 C 0.000 103.329,-0.101 100.837,1.981 98.621 C 2.486 98.082,3.436 97.524,4.091 97.380 C 4.746 97.236,5.613 96.787,6.018 96.382 C 6.424 95.976,7.383 95.527,8.150 95.383 C 8.917 95.239,9.638 94.879,9.751 94.583 C 9.865 94.287,10.592 93.925,11.366 93.780 C 12.141 93.635,13.167 93.176,13.645 92.761 C 14.124 92.345,15.138 91.834,15.898 91.624 C 16.659 91.414,17.519 90.918,17.811 90.521 C 18.555 89.508,23.439 89.611,26.200 90.699 C 27.300 91.132,29.241 91.604,30.513 91.748 C 31.785 91.892,33.855 92.357,35.113 92.780 C 37.222 93.490,39.408 93.795,41.400 93.656 C 42.166 93.603,42.200 93.315,42.200 86.900 C 42.200 79.871,42.447 78.000,43.377 78.000 C 43.686 78.000,44.473 77.550,45.127 77.000 C 45.781 76.450,46.687 76.000,47.142 76.000 C 47.597 76.000,48.291 75.659,48.684 75.242 C 49.078 74.824,50.073 74.300,50.895 74.075 C 51.717 73.851,52.670 73.387,53.013 73.044 C 53.356 72.702,54.329 72.234,55.177 72.006 C 56.024 71.778,56.819 71.326,56.944 71.003 C 57.068 70.679,57.903 70.297,58.799 70.154 C 59.737 70.004,60.588 69.596,60.804 69.193 C 61.010 68.808,61.823 68.372,62.611 68.224 C 63.400 68.076,64.417 67.583,64.873 67.127 C 65.896 66.104,70.342 66.262,71.560 67.364 C 71.965 67.730,73.444 68.157,74.929 68.335 C 76.385 68.511,77.896 68.933,78.288 69.274 C 78.680 69.615,80.015 69.993,81.255 70.114 C 82.495 70.234,84.047 70.611,84.704 70.951 C 85.361 71.290,87.215 71.843,88.823 72.178 C 90.432 72.513,91.931 72.971,92.154 73.194 C 93.484 74.524,93.600 73.749,93.600 63.569 L 93.600 53.537 95.184 51.969 C 96.269 50.895,97.122 50.400,97.888 50.400 C 98.565 50.400,99.200 50.091,99.495 49.620 C 99.763 49.191,100.604 48.723,101.365 48.580 C 102.125 48.438,103.054 47.982,103.429 47.568 C 103.803 47.154,104.703 46.704,105.429 46.568 C 106.154 46.432,107.054 45.982,107.429 45.568 C 107.803 45.154,108.760 44.695,109.555 44.547 C 110.350 44.399,111.221 43.967,111.490 43.585 C 111.760 43.204,112.590 42.778,113.335 42.639 C 114.080 42.499,114.994 42.049,115.366 41.638 C 115.737 41.228,116.575 40.785,117.228 40.654 C 117.881 40.524,118.796 40.062,119.262 39.628 C 119.727 39.195,120.669 38.721,121.354 38.577 C 122.039 38.432,122.995 37.951,123.478 37.508 C 124.457 36.609,126.699 36.756,127.730 37.787 C 128.035 38.092,128.986 38.465,129.843 38.615 C 130.699 38.766,132.006 39.235,132.747 39.659 C 133.488 40.082,134.976 40.618,136.053 40.849 C 137.130 41.080,138.270 41.527,138.586 41.843 C 138.901 42.158,139.985 42.571,140.994 42.759 C 142.003 42.948,143.137 43.375,143.514 43.708 C 143.891 44.040,145.010 44.440,146.000 44.594 C 146.990 44.749,148.380 45.210,149.088 45.618 C 149.797 46.026,151.057 46.475,151.888 46.617 C 152.720 46.759,153.857 47.195,154.416 47.587 C 155.674 48.469,157.717 48.944,158.791 48.603 C 159.583 48.352,159.600 48.047,159.600 34.327 L 159.600 20.308 161.264 18.786 C 162.186 17.944,163.534 17.151,164.285 17.010 C 165.032 16.870,165.736 16.510,165.851 16.211 C 165.966 15.911,166.933 15.456,168.000 15.200 C 169.067 14.944,170.030 14.498,170.142 14.208 C 170.253 13.918,171.032 13.456,171.872 13.182 C 172.712 12.908,173.829 12.350,174.354 11.942 C 174.879 11.534,175.644 11.200,176.054 11.200 C 176.464 11.200,177.119 10.881,177.510 10.490 C 177.900 10.100,178.980 9.553,179.910 9.274 C 180.839 8.996,181.600 8.610,181.600 8.416 C 181.600 8.223,182.484 7.771,183.565 7.412 C 184.646 7.053,185.626 6.508,185.744 6.202 C 185.862 5.895,186.642 5.517,187.479 5.361 C 188.316 5.206,189.221 4.767,189.490 4.385 C 189.760 4.004,190.625 3.572,191.413 3.424 C 192.200 3.276,193.185 2.815,193.600 2.400 C 194.015 1.985,194.995 1.525,195.778 1.378 C 196.597 1.224,197.200 0.875,197.200 0.555 C 197.200 0.083,182.466 0.000,98.600 0.000 L 0.000 0.000 0.000 49.800 M202.800 0.537 C 202.800 0.832,203.499 1.283,204.353 1.539 C 205.206 1.794,206.125 2.268,206.393 2.591 C 206.661 2.914,207.481 3.291,208.214 3.429 C 208.948 3.567,209.857 4.021,210.236 4.440 C 210.614 4.858,211.231 5.200,211.606 5.200 C 211.981 5.200,212.919 5.628,213.690 6.151 C 214.461 6.674,215.731 7.313,216.514 7.571 C 217.296 7.830,218.148 8.297,218.408 8.610 C 218.668 8.923,219.505 9.296,220.268 9.439 C 221.031 9.582,221.866 10.037,222.124 10.450 C 222.382 10.862,222.974 11.200,223.440 11.200 C 223.907 11.200,224.951 11.650,225.762 12.200 C 226.572 12.750,227.473 13.200,227.764 13.200 C 228.054 13.200,228.769 13.575,229.352 14.034 C 229.935 14.493,231.085 15.051,231.906 15.276 C 232.728 15.500,233.722 16.024,234.116 16.442 C 234.509 16.859,235.160 17.200,235.562 17.200 C 235.963 17.200,236.721 17.531,237.246 17.936 C 237.771 18.341,238.818 18.883,239.574 19.141 C 240.330 19.399,241.230 19.855,241.574 20.154 C 241.918 20.454,242.861 20.911,243.668 21.170 C 244.475 21.429,245.348 21.897,245.608 22.210 C 245.868 22.523,246.681 22.891,247.414 23.029 C 248.148 23.167,249.057 23.621,249.436 24.040 C 249.814 24.458,250.431 24.800,250.806 24.800 C 251.181 24.800,252.119 25.228,252.890 25.751 C 253.661 26.274,254.931 26.913,255.714 27.171 C 256.496 27.430,257.348 27.897,257.608 28.210 C 257.868 28.523,258.697 28.894,259.450 29.036 C 260.203 29.177,261.040 29.604,261.310 29.985 C 261.579 30.367,262.450 30.799,263.245 30.947 C 264.040 31.095,264.994 31.551,265.366 31.962 C 265.737 32.372,266.550 32.810,267.172 32.934 C 267.794 33.059,268.598 33.455,268.957 33.814 C 269.316 34.173,270.283 34.651,271.105 34.875 C 271.927 35.100,272.922 35.624,273.316 36.042 C 273.709 36.459,274.418 36.800,274.890 36.800 C 275.362 36.800,276.120 37.130,276.574 37.533 C 277.028 37.937,278.255 38.582,279.300 38.966 C 280.345 39.351,281.200 39.817,281.200 40.001 C 281.200 40.186,281.732 40.453,282.381 40.596 C 283.031 40.739,283.990 41.192,284.513 41.603 C 285.035 42.014,285.989 42.475,286.632 42.628 C 287.274 42.780,288.160 43.222,288.600 43.609 C 289.040 43.997,289.966 44.433,290.659 44.579 C 291.351 44.726,292.217 45.177,292.585 45.583 C 292.952 45.989,293.846 46.432,294.571 46.568 C 295.297 46.704,296.210 47.169,296.600 47.600 C 296.990 48.031,297.920 48.499,298.665 48.639 C 299.410 48.778,300.240 49.202,300.510 49.580 C 300.779 49.959,301.592 50.385,302.315 50.527 C 303.038 50.669,304.343 51.359,305.215 52.060 L 306.800 53.334 306.800 78.037 L 306.800 102.740 309.057 103.963 C 310.299 104.635,311.964 105.295,312.757 105.430 C 313.551 105.565,314.716 106.039,315.347 106.484 C 317.133 107.744,317.187 107.324,317.194 92.144 C 317.201 75.452,316.898 76.525,321.765 75.979 C 323.513 75.783,325.197 75.365,325.560 75.036 C 325.919 74.711,327.580 74.276,329.251 74.069 C 330.922 73.861,332.725 73.406,333.258 73.056 C 333.791 72.707,335.391 72.252,336.814 72.045 C 338.236 71.838,340.021 71.402,340.780 71.077 C 342.042 70.535,342.282 70.550,343.574 71.242 C 344.352 71.659,345.202 72.000,345.463 72.000 C 345.725 72.000,346.447 72.427,347.069 72.948 C 347.691 73.470,348.766 74.020,349.459 74.171 C 350.151 74.322,351.034 74.795,351.421 75.223 C 351.807 75.650,352.546 76.000,353.062 76.000 C 353.578 76.000,354.320 76.320,354.712 76.712 C 355.104 77.104,356.274 77.749,357.312 78.145 C 358.350 78.542,359.200 79.008,359.200 79.181 C 359.200 79.354,359.998 79.720,360.974 79.993 C 361.950 80.266,362.838 80.722,362.947 81.007 C 363.057 81.292,363.743 81.651,364.473 81.805 C 365.203 81.960,366.160 82.403,366.600 82.791 C 367.040 83.178,367.940 83.622,368.600 83.777 C 369.260 83.932,370.160 84.384,370.600 84.780 C 371.040 85.177,372.061 85.713,372.868 85.971 C 373.675 86.230,374.543 86.690,374.796 86.995 C 375.048 87.299,375.828 87.670,376.528 87.817 C 377.227 87.965,378.160 88.403,378.600 88.791 C 379.040 89.178,379.862 89.604,380.426 89.737 C 380.991 89.869,381.860 90.332,382.359 90.765 C 382.858 91.197,383.779 91.664,384.405 91.801 C 385.032 91.939,385.752 92.301,386.004 92.605 C 386.257 92.910,387.125 93.374,387.932 93.638 C 388.739 93.901,389.829 94.450,390.354 94.858 C 390.879 95.266,391.609 95.600,391.976 95.600 C 392.344 95.600,393.255 96.050,394.000 96.600 C 394.745 97.150,395.667 97.600,396.047 97.600 C 396.427 97.600,397.273 98.050,397.927 98.600 C 398.581 99.150,399.315 99.600,399.558 99.600 C 399.878 99.600,400.000 85.906,400.000 49.800 L 400.000 0.000 301.400 0.000 C 219.192 0.000,202.800 0.089,202.800 0.537 M333.885 210.648 C 333.535 210.999,333.512 269.031,333.862 270.336 C 334.067 271.105,334.298 271.229,335.156 271.031 C 335.730 270.899,338.990 270.618,342.400 270.408 C 345.810 270.197,350.670 269.751,353.200 269.416 C 355.730 269.081,361.400 268.618,365.800 268.388 C 370.200 268.158,374.562 267.819,375.492 267.635 C 376.423 267.451,378.763 267.449,380.692 267.632 C 382.622 267.814,387.755 268.017,392.100 268.082 L 400.001 268.200 400.000 240.453 L 400.000 212.707 399.100 212.988 C 396.532 213.791,393.392 213.954,380.200 213.970 C 368.254 213.985,365.391 213.879,363.400 213.350 C 361.886 212.948,357.985 212.586,352.837 212.370 C 348.348 212.181,343.308 211.763,341.637 211.440 C 337.491 210.639,334.227 210.306,333.885 210.648 M314.800 374.792 C 314.030 374.954,312.860 375.382,312.200 375.741 C 311.540 376.101,310.413 376.507,309.695 376.643 C 306.682 377.215,306.801 376.100,306.794 403.862 C 306.791 417.468,306.656 428.781,306.494 429.001 C 305.958 429.732,302.968 431.600,302.332 431.600 C 301.989 431.600,301.279 431.931,300.754 432.336 C 300.229 432.741,299.207 433.274,298.481 433.522 C 297.756 433.769,296.697 434.338,296.127 434.786 C 295.558 435.234,294.769 435.600,294.375 435.600 C 293.980 435.600,293.416 435.842,293.120 436.137 C 292.294 436.963,290.941 437.600,290.014 437.600 C 289.552 437.600,289.072 437.868,288.946 438.196 C 288.820 438.524,287.975 439.015,287.068 439.287 C 286.161 439.558,285.110 440.090,284.732 440.468 C 284.354 440.846,283.417 441.273,282.650 441.417 C 281.883 441.561,281.162 441.921,281.049 442.217 C 280.935 442.513,280.068 442.983,279.121 443.260 C 278.175 443.538,277.165 444.088,276.877 444.483 C 276.590 444.877,275.950 445.200,275.455 445.200 C 274.960 445.200,273.945 445.650,273.200 446.200 C 272.455 446.750,271.544 447.200,271.176 447.200 C 270.809 447.200,270.042 447.566,269.473 448.014 C 268.903 448.462,267.844 449.031,267.119 449.278 C 266.393 449.526,265.371 450.059,264.846 450.464 C 264.321 450.869,263.581 451.200,263.200 451.200 C 262.819 451.200,262.079 451.534,261.554 451.942 C 261.029 452.350,259.939 452.899,259.132 453.162 C 258.325 453.426,257.457 453.890,257.204 454.195 C 256.952 454.499,256.239 454.860,255.622 454.995 C 255.004 455.131,253.901 455.682,253.172 456.221 C 252.442 456.759,251.457 457.200,250.984 457.200 C 250.511 457.200,249.801 457.556,249.407 457.992 C 249.013 458.428,248.097 458.896,247.373 459.031 C 246.648 459.167,245.962 459.521,245.849 459.817 C 245.735 460.113,244.868 460.578,243.921 460.850 C 242.975 461.123,241.886 461.664,241.502 462.054 C 241.117 462.444,240.185 462.879,239.429 463.021 C 238.674 463.163,237.962 463.522,237.848 463.818 C 237.734 464.115,236.902 464.557,235.999 464.800 C 235.097 465.043,234.007 465.593,233.579 466.021 C 233.151 466.449,232.464 466.800,232.054 466.800 C 231.644 466.800,230.842 467.166,230.273 467.614 C 229.703 468.062,228.644 468.631,227.919 468.878 C 227.193 469.126,226.171 469.659,225.646 470.064 C 225.121 470.469,224.381 470.800,224.000 470.800 C 223.619 470.800,222.879 471.134,222.354 471.542 C 221.829 471.950,220.739 472.499,219.932 472.762 C 219.125 473.026,218.257 473.490,218.004 473.795 C 217.752 474.099,217.039 474.460,216.422 474.595 C 215.804 474.731,214.701 475.282,213.972 475.821 C 213.242 476.359,212.257 476.800,211.784 476.800 C 211.311 476.800,210.607 477.150,210.221 477.577 C 209.834 478.005,208.966 478.476,208.292 478.624 C 207.618 478.772,206.705 479.230,206.263 479.641 C 205.821 480.053,204.861 480.502,204.130 480.640 C 203.382 480.780,202.800 481.132,202.800 481.445 C 202.800 481.917,217.534 482.000,301.400 482.000 L 400.000 482.000 400.000 432.200 C 400.000 379.734,400.043 381.014,398.349 383.065 C 398.047 383.430,396.900 384.158,395.800 384.683 C 394.700 385.207,393.350 385.895,392.800 386.212 C 392.250 386.529,391.479 386.791,391.087 386.794 C 390.696 386.797,390.278 387.052,390.160 387.359 C 390.042 387.667,389.148 388.120,388.173 388.365 C 387.198 388.611,386.400 388.969,386.400 389.162 C 386.400 389.355,385.650 389.813,384.733 390.180 C 383.817 390.547,382.622 391.196,382.079 391.623 C 381.536 392.051,380.781 392.400,380.400 392.400 C 380.019 392.400,379.264 392.749,378.722 393.175 C 378.180 393.602,377.211 394.075,376.568 394.228 C 375.926 394.380,375.040 394.816,374.600 395.197 C 374.160 395.578,373.182 396.096,372.426 396.350 C 371.670 396.603,370.770 397.055,370.426 397.354 C 370.082 397.654,369.125 398.116,368.300 398.380 C 367.475 398.645,366.800 399.021,366.800 399.215 C 366.800 399.409,366.035 399.791,365.100 400.064 C 364.165 400.337,363.264 400.780,363.097 401.050 C 362.930 401.319,362.120 401.756,361.297 402.021 C 360.474 402.285,359.518 402.746,359.174 403.046 C 358.830 403.345,357.930 403.801,357.174 404.059 C 356.418 404.317,355.371 404.859,354.846 405.264 C 354.321 405.669,353.591 406.000,353.224 406.000 C 352.856 406.000,351.945 406.450,351.200 407.000 C 350.455 407.550,349.548 408.000,349.185 408.000 C 348.821 408.000,348.001 408.450,347.362 409.000 C 346.723 409.549,346.032 409.999,345.826 410.000 C 345.621 410.000,344.687 410.371,343.752 410.823 C 342.172 411.588,341.965 411.603,340.848 411.025 C 340.187 410.683,338.452 410.234,336.992 410.027 C 335.533 409.821,333.932 409.386,333.436 409.060 C 332.940 408.735,331.648 408.356,330.567 408.217 C 326.673 407.718,326.017 407.560,325.438 406.981 C 325.085 406.628,323.651 406.293,321.835 406.139 C 317.108 405.740,317.435 406.916,317.200 389.492 C 317.073 380.094,316.854 374.635,316.600 374.582 C 316.380 374.535,315.570 374.630,314.800 374.792 M0.000 432.200 L 0.000 482.000 98.600 482.000 C 181.896 482.000,197.200 481.915,197.200 481.451 C 197.200 481.123,196.577 480.803,195.652 480.655 C 194.801 480.519,193.879 480.136,193.604 479.805 C 193.330 479.474,192.409 478.995,191.559 478.740 C 190.709 478.486,189.712 477.945,189.344 477.539 C 188.977 477.132,188.254 476.800,187.738 476.800 C 187.222 476.800,186.458 476.458,186.041 476.041 C 185.623 475.623,184.745 475.164,184.090 475.020 C 183.435 474.876,182.301 474.318,181.572 473.779 C 180.842 473.241,179.920 472.800,179.522 472.800 C 179.125 472.800,178.449 472.449,178.021 472.021 C 177.593 471.593,176.503 471.043,175.601 470.800 C 174.698 470.557,173.866 470.115,173.752 469.818 C 173.638 469.522,172.932 469.164,172.184 469.023 C 171.435 468.883,170.587 468.431,170.298 468.018 C 170.009 467.606,169.090 467.141,168.255 466.984 C 167.420 466.827,166.436 466.379,166.069 465.988 C 165.701 465.598,164.654 465.078,163.741 464.835 C 162.829 464.591,161.979 464.123,161.854 463.796 C 161.728 463.468,161.345 463.200,161.003 463.200 C 159.782 463.200,159.600 461.153,159.600 447.401 C 159.600 431.242,159.694 431.445,153.675 434.646 C 152.688 435.171,151.440 435.600,150.902 435.600 C 150.364 435.600,149.427 435.954,148.820 436.386 C 148.213 436.818,146.925 437.292,145.958 437.438 C 144.991 437.584,143.840 438.017,143.400 438.401 C 142.960 438.784,141.841 439.192,140.914 439.309 C 139.986 439.425,138.766 439.883,138.202 440.327 C 137.638 440.771,136.417 441.262,135.488 441.418 C 134.560 441.574,133.397 442.018,132.905 442.405 C 132.412 442.792,131.160 443.235,130.122 443.391 C 129.084 443.547,128.036 443.946,127.793 444.278 C 127.053 445.290,123.821 445.449,123.155 444.507 C 122.850 444.075,121.921 443.595,121.091 443.441 C 120.261 443.287,119.363 442.809,119.095 442.380 C 118.827 441.951,118.279 441.600,117.877 441.600 C 117.027 441.600,115.574 440.883,115.000 440.179 C 114.780 439.910,113.927 439.571,113.105 439.427 C 112.223 439.273,111.438 438.844,111.191 438.383 C 110.921 437.880,110.354 437.600,109.602 437.600 C 108.958 437.600,108.109 437.267,107.716 436.860 C 107.322 436.452,106.407 435.919,105.681 435.674 C 104.956 435.429,103.897 434.862,103.327 434.414 C 102.758 433.966,101.991 433.600,101.624 433.600 C 101.256 433.600,100.345 433.150,99.600 432.600 C 98.855 432.050,97.867 431.600,97.406 431.600 C 96.938 431.600,95.911 430.887,95.084 429.986 L 93.600 428.373 93.600 418.386 C 93.600 407.943,93.586 407.867,91.834 409.014 C 91.318 409.352,89.778 409.809,88.412 410.029 C 87.045 410.249,85.519 410.696,85.021 411.023 C 84.522 411.350,82.924 411.761,81.469 411.936 C 80.014 412.111,78.504 412.538,78.112 412.884 C 77.720 413.230,76.410 413.645,75.200 413.804 C 73.990 413.964,72.287 414.457,71.416 414.898 C 69.124 416.061,65.947 416.062,64.708 414.900 C 64.180 414.405,63.364 414.000,62.895 414.000 C 62.425 414.000,61.556 413.550,60.962 413.000 C 60.369 412.450,59.484 412.000,58.996 412.000 C 58.507 412.000,57.679 411.669,57.154 411.264 C 56.629 410.859,55.582 410.317,54.826 410.059 C 54.070 409.801,53.170 409.345,52.826 409.046 C 52.482 408.746,51.526 408.285,50.703 408.021 C 49.880 407.756,49.070 407.319,48.903 407.050 C 48.736 406.780,47.854 406.342,46.941 406.076 C 46.029 405.810,45.180 405.324,45.054 404.996 C 44.928 404.668,44.481 404.400,44.062 404.400 C 42.416 404.400,42.203 403.453,42.137 395.839 L 42.073 388.600 39.304 388.622 C 37.628 388.636,35.995 388.900,35.167 389.291 C 34.415 389.647,32.329 390.139,30.532 390.384 C 28.735 390.629,26.678 391.122,25.961 391.479 C 23.783 392.566,19.080 392.680,18.071 391.671 C 17.615 391.215,16.503 390.643,15.601 390.400 C 14.698 390.157,13.866 389.716,13.752 389.420 C 13.639 389.124,12.740 388.679,11.756 388.431 C 10.772 388.183,9.874 387.736,9.759 387.437 C 9.644 387.139,8.872 386.786,8.043 386.653 C 7.213 386.521,6.207 386.049,5.805 385.606 C 5.404 385.163,4.750 384.800,4.352 384.800 C 3.954 384.800,3.013 384.260,2.261 383.600 C 1.509 382.940,0.693 382.400,0.447 382.400 C 0.120 382.400,0.000 395.763,0.000 432.200 " stroke="none" fill="none" fill-rule="evenodd"></path><path id="path1" d="M197.284 2.394 C 196.560 2.565,195.660 2.971,195.284 3.296 C 194.908 3.621,194.007 4.086,193.281 4.329 C 192.556 4.572,191.497 5.138,190.927 5.586 C 190.358 6.034,189.581 6.400,189.200 6.400 C 188.819 6.400,188.048 6.762,187.486 7.204 C 186.925 7.645,185.919 8.116,185.253 8.249 C 184.586 8.383,183.734 8.831,183.358 9.246 C 182.983 9.661,182.369 10.000,181.994 10.000 C 181.619 10.000,180.649 10.450,179.838 11.000 C 179.028 11.550,178.128 12.000,177.838 12.000 C 177.549 12.000,176.636 12.459,175.810 13.019 C 174.984 13.580,173.773 14.145,173.120 14.276 C 172.466 14.407,171.838 14.756,171.724 15.053 C 171.611 15.349,170.824 15.778,169.977 16.006 C 169.129 16.234,168.156 16.702,167.813 17.044 C 167.470 17.387,166.568 17.839,165.808 18.049 C 165.049 18.259,164.164 18.693,163.844 19.014 C 163.523 19.334,162.801 19.772,162.239 19.985 L 161.219 20.373 161.003 35.687 C 160.429 76.375,160.389 194.924,160.948 195.777 C 161.912 197.247,164.765 197.712,177.000 198.393 C 180.740 198.601,185.960 199.041,188.600 199.371 C 191.240 199.701,197.208 200.165,201.862 200.403 C 206.516 200.640,210.917 201.004,211.641 201.212 C 212.366 201.420,216.928 201.774,221.779 201.999 C 226.631 202.224,232.040 202.671,233.800 202.992 C 235.560 203.314,240.870 203.765,245.600 203.996 C 250.330 204.227,256.000 204.673,258.200 204.987 C 265.439 206.021,267.299 206.070,274.400 205.413 C 278.250 205.057,284.910 204.593,289.200 204.382 C 305.814 203.565,307.009 202.290,292.000 201.395 C 289.690 201.257,286.503 200.887,284.918 200.572 C 283.333 200.258,278.833 199.806,274.918 199.568 C 271.003 199.330,266.450 198.873,264.800 198.553 C 263.150 198.232,258.626 197.799,254.746 197.590 C 250.867 197.381,246.547 196.954,245.146 196.641 C 243.746 196.328,240.170 195.951,237.200 195.803 C 232.062 195.548,230.256 195.362,223.800 194.425 C 222.260 194.201,218.300 193.846,215.000 193.636 C 208.565 193.225,201.316 192.158,200.498 191.502 C 200.099 191.181,199.998 171.952,200.002 96.917 C 200.004 45.116,199.905 2.569,199.780 2.367 C 199.522 1.950,199.140 1.954,197.284 2.394 M123.089 39.607 C 122.258 39.756,121.358 40.162,121.089 40.510 C 120.820 40.858,119.835 41.342,118.900 41.587 C 117.965 41.831,117.200 42.184,117.200 42.372 C 117.200 42.560,116.435 43.018,115.500 43.390 C 114.565 43.762,113.530 44.305,113.200 44.596 C 112.870 44.887,111.835 45.329,110.900 45.578 C 109.965 45.827,109.200 46.197,109.200 46.400 C 109.200 46.603,108.501 46.957,107.647 47.187 C 106.792 47.418,105.878 47.865,105.615 48.182 C 105.351 48.500,104.475 48.970,103.668 49.229 C 102.861 49.487,101.840 50.013,101.400 50.397 C 100.960 50.781,100.104 51.212,99.497 51.356 C 98.890 51.499,97.837 52.114,97.157 52.722 L 95.920 53.827 95.979 63.761 C 96.029 72.234,95.946 73.796,95.417 74.381 C 94.466 75.432,94.467 406.320,95.418 407.772 C 95.947 408.579,96.022 410.186,95.920 418.485 L 95.800 428.248 97.343 429.524 C 98.192 430.226,99.192 430.800,99.566 430.800 C 99.939 430.800,100.855 431.250,101.600 431.800 C 102.345 432.350,103.273 432.800,103.662 432.800 C 104.051 432.800,104.691 433.145,105.084 433.568 C 105.478 433.990,106.340 434.463,107.000 434.620 C 107.660 434.777,108.560 435.218,109.000 435.600 C 109.440 435.982,110.290 436.411,110.890 436.553 C 111.489 436.694,112.639 437.258,113.445 437.805 C 114.252 438.352,115.240 438.800,115.640 438.800 C 116.041 438.800,116.691 439.145,117.084 439.568 C 117.478 439.990,118.340 440.463,119.000 440.620 C 119.660 440.777,120.560 441.219,121.000 441.603 C 121.937 442.420,124.633 442.994,124.970 442.448 C 125.320 441.883,125.251 39.883,124.902 39.590 C 124.736 39.451,123.920 39.458,123.089 39.607 M64.200 69.078 C 63.760 69.189,63.031 69.619,62.581 70.034 C 62.130 70.448,61.194 70.901,60.501 71.040 C 59.808 71.178,58.934 71.631,58.558 72.046 C 58.183 72.461,57.454 72.800,56.938 72.800 C 56.422 72.800,55.649 73.151,55.221 73.579 C 54.793 74.007,53.757 74.542,52.919 74.768 C 52.082 74.993,51.084 75.543,50.702 75.989 C 50.320 76.435,49.556 76.800,49.004 76.800 C 48.452 76.800,47.611 77.189,47.136 77.664 C 46.662 78.138,45.717 78.640,45.036 78.779 L 43.800 79.031 43.458 87.816 C 43.056 98.159,42.998 381.270,43.396 394.300 L 43.668 403.200 44.603 403.200 C 45.118 403.200,46.047 403.627,46.669 404.148 C 47.291 404.670,48.366 405.220,49.059 405.371 C 49.751 405.522,50.634 405.995,51.021 406.423 C 51.407 406.850,52.132 407.200,52.631 407.200 C 53.130 407.200,54.073 407.650,54.727 408.200 C 55.381 408.750,56.295 409.200,56.758 409.200 C 57.221 409.200,57.948 409.548,58.374 409.974 C 58.800 410.400,59.811 410.931,60.621 411.155 C 61.432 411.379,62.409 411.846,62.792 412.193 C 63.858 413.157,65.832 413.612,66.575 413.064 C 67.146 412.643,67.195 396.727,67.102 240.800 L 67.000 69.000 66.000 68.938 C 65.450 68.904,64.640 68.967,64.200 69.078 M338.400 73.091 C 337.850 73.191,337.098 73.542,336.730 73.872 C 336.361 74.201,334.679 74.642,332.991 74.851 C 331.304 75.061,329.497 75.511,328.975 75.853 C 328.454 76.195,326.629 76.648,324.920 76.860 C 323.211 77.072,321.526 77.505,321.175 77.823 C 320.824 78.140,320.168 78.400,319.717 78.400 C 319.267 78.400,318.674 78.670,318.399 79.001 C 317.704 79.839,317.249 206.197,317.937 207.483 C 318.816 209.125,323.049 209.740,333.000 209.672 C 341.344 209.615,344.678 209.825,350.200 210.754 C 351.520 210.977,356.020 211.351,360.200 211.586 C 364.380 211.821,369.870 212.298,372.400 212.646 C 376.888 213.263,386.800 213.133,386.800 212.456 C 386.800 212.062,385.297 211.199,383.522 210.572 C 381.868 209.989,380.077 209.782,373.200 209.379 C 370.890 209.244,367.650 208.883,366.000 208.578 C 364.350 208.273,360.210 207.835,356.800 207.605 C 349.454 207.111,344.392 206.452,343.700 205.900 C 343.304 205.585,343.200 191.801,343.200 139.394 C 343.200 79.481,343.141 73.263,342.567 73.043 C 341.881 72.779,339.992 72.801,338.400 73.091 M16.021 93.179 C 15.593 93.607,14.541 94.147,13.685 94.377 C 12.828 94.608,11.801 95.157,11.402 95.598 C 11.002 96.039,10.263 96.400,9.759 96.400 C 9.254 96.400,8.356 96.850,7.762 97.400 C 7.169 97.950,6.271 98.400,5.766 98.400 C 5.262 98.400,4.258 98.940,3.536 99.600 C 2.813 100.260,2.127 100.800,2.011 100.800 C 1.895 100.800,1.844 163.921,1.898 241.069 L 1.997 381.339 3.298 382.453 C 4.014 383.066,4.991 383.575,5.469 383.584 C 5.947 383.593,6.873 384.050,7.527 384.600 C 8.181 385.150,9.081 385.600,9.527 385.600 C 9.973 385.600,10.873 386.050,11.527 386.600 C 12.181 387.150,13.081 387.600,13.527 387.600 C 13.973 387.600,14.854 388.033,15.483 388.563 C 16.536 389.449,17.933 389.813,19.700 389.660 C 20.365 389.603,20.400 382.234,20.400 241.000 L 20.400 92.400 18.600 92.400 C 17.350 92.400,16.562 92.638,16.021 93.179 M317.960 273.048 C 317.428 273.689,317.671 401.555,318.207 402.900 C 318.371 403.312,318.907 403.600,319.511 403.600 C 320.075 403.600,320.874 403.905,321.287 404.278 C 321.746 404.694,323.120 405.073,324.831 405.255 C 326.368 405.420,328.204 405.851,328.913 406.213 C 329.621 406.576,331.404 407.030,332.875 407.222 C 334.347 407.414,336.234 407.938,337.069 408.386 C 338.574 409.192,341.791 409.488,342.600 408.894 C 343.332 408.356,343.134 275.260,342.400 274.978 C 342.070 274.851,337.537 274.579,332.326 274.373 C 327.115 274.168,322.345 273.801,321.726 273.557 C 319.170 272.552,318.452 272.455,317.960 273.048 M160.812 285.178 C 160.390 285.966,160.540 412.777,161.002 446.295 L 161.218 461.989 162.193 462.234 C 162.729 462.368,163.369 462.722,163.616 463.019 C 163.862 463.316,164.725 463.774,165.532 464.038 C 166.339 464.301,167.429 464.850,167.954 465.258 C 168.479 465.666,169.219 466.000,169.600 466.000 C 169.981 466.000,170.721 466.334,171.246 466.742 C 171.771 467.150,172.861 467.699,173.668 467.962 C 174.475 468.226,175.343 468.690,175.596 468.995 C 175.848 469.299,176.574 469.663,177.209 469.802 C 177.843 469.941,178.776 470.377,179.281 470.769 C 179.787 471.162,180.861 471.699,181.668 471.962 C 182.475 472.226,183.348 472.697,183.608 473.010 C 183.868 473.323,184.695 473.694,185.446 473.835 C 186.197 473.976,186.944 474.308,187.106 474.574 C 187.268 474.840,188.210 475.374,189.200 475.762 C 190.190 476.150,191.270 476.697,191.600 476.977 C 191.930 477.257,192.790 477.685,193.512 477.927 C 194.233 478.169,195.101 478.644,195.440 478.983 C 195.780 479.323,196.416 479.600,196.855 479.600 C 197.294 479.600,197.982 479.776,198.384 479.992 C 198.905 480.270,199.244 480.228,199.561 479.847 C 200.158 479.127,200.191 289.631,199.594 289.034 C 199.373 288.813,196.618 288.506,193.471 288.351 C 188.231 288.093,186.477 287.882,180.600 286.798 C 179.500 286.596,175.837 286.334,172.460 286.216 C 167.513 286.044,165.968 285.846,164.509 285.201 C 162.237 284.196,161.340 284.190,160.812 285.178 " stroke="none" fill="#9d5025" fill-rule="evenodd"></path><path id="path2" d="M198.400 0.567 C 198.400 0.879,197.545 1.449,196.500 1.835 C 195.455 2.220,194.316 2.775,193.969 3.068 C 193.621 3.361,193.061 3.600,192.724 3.600 C 192.387 3.600,191.475 4.032,190.697 4.560 C 189.919 5.088,188.859 5.652,188.341 5.812 C 187.824 5.973,186.950 6.416,186.400 6.797 C 185.850 7.178,184.725 7.708,183.900 7.975 C 183.075 8.243,182.400 8.621,182.400 8.816 C 182.400 9.010,181.701 9.357,180.847 9.587 C 179.992 9.818,179.085 10.257,178.830 10.564 C 178.576 10.870,177.880 11.240,177.284 11.385 C 176.688 11.530,175.540 12.081,174.732 12.609 C 173.925 13.137,172.813 13.682,172.262 13.820 C 171.710 13.959,170.948 14.416,170.567 14.836 C 170.187 15.256,169.478 15.600,168.992 15.600 C 168.506 15.600,167.679 15.934,167.154 16.342 C 166.629 16.750,165.539 17.299,164.732 17.562 C 163.925 17.826,163.048 18.302,162.783 18.620 C 162.518 18.939,162.119 19.200,161.895 19.200 C 160.547 19.200,160.426 20.452,160.407 34.600 C 160.388 49.248,160.306 50.400,159.273 50.400 C 158.815 50.400,158.761 50.521,159.077 50.837 C 159.393 51.153,159.747 51.149,160.357 50.823 C 161.191 50.377,161.200 50.217,161.200 35.376 L 161.200 20.380 162.230 19.989 C 162.797 19.773,163.523 19.334,163.844 19.014 C 164.164 18.693,165.049 18.259,165.808 18.049 C 166.568 17.839,167.470 17.387,167.813 17.044 C 168.156 16.702,169.129 16.234,169.977 16.006 C 170.824 15.778,171.611 15.349,171.724 15.053 C 171.838 14.756,172.466 14.407,173.120 14.276 C 173.773 14.145,174.984 13.580,175.810 13.019 C 176.636 12.459,177.549 12.000,177.838 12.000 C 178.128 12.000,179.028 11.550,179.838 11.000 C 180.649 10.450,181.619 10.000,181.994 10.000 C 182.369 10.000,182.983 9.661,183.358 9.246 C 183.734 8.831,184.586 8.383,185.253 8.249 C 185.919 8.116,186.925 7.645,187.486 7.204 C 188.048 6.762,188.819 6.400,189.200 6.400 C 189.581 6.400,190.358 6.034,190.927 5.586 C 191.497 5.138,192.556 4.569,193.281 4.322 C 194.007 4.074,195.029 3.541,195.554 3.136 C 196.079 2.731,196.778 2.400,197.108 2.400 C 197.437 2.400,198.403 2.192,199.254 1.937 C 201.225 1.346,201.466 0.000,199.600 0.000 C 198.831 0.000,198.400 0.204,198.400 0.567 M120.200 40.058 C 117.780 41.323,115.530 42.472,115.200 42.612 C 114.542 42.892,104.566 47.850,103.600 48.377 C 103.270 48.558,101.592 49.378,99.870 50.199 C 98.149 51.021,96.289 52.112,95.737 52.624 L 94.733 53.554 94.667 63.515 C 94.614 71.336,94.481 73.621,94.046 74.144 C 93.561 74.729,93.586 74.797,94.246 74.694 C 96.042 74.415,96.039 74.435,95.979 63.878 L 95.921 53.826 97.158 52.721 C 97.838 52.114,98.890 51.499,99.497 51.356 C 100.104 51.212,100.960 50.781,101.400 50.397 C 101.840 50.013,102.861 49.487,103.668 49.229 C 104.475 48.970,105.351 48.500,105.615 48.182 C 105.878 47.865,106.792 47.418,107.647 47.187 C 108.501 46.957,109.200 46.603,109.200 46.400 C 109.200 46.197,109.965 45.827,110.900 45.578 C 111.835 45.329,112.870 44.887,113.200 44.596 C 113.530 44.305,114.565 43.762,115.500 43.390 C 116.435 43.018,117.200 42.560,117.200 42.372 C 117.200 42.184,117.965 41.826,118.900 41.577 C 119.835 41.327,120.922 40.780,121.316 40.361 C 121.910 39.728,123.600 39.347,124.900 39.553 C 125.065 39.579,125.200 39.409,125.200 39.176 C 125.200 38.943,125.380 38.864,125.600 39.000 C 125.820 39.136,126.000 39.063,126.000 38.838 C 126.000 37.514,124.436 37.843,120.200 40.058 M65.200 67.775 C 64.650 68.080,62.760 69.002,61.000 69.826 C 59.240 70.649,57.530 71.541,57.200 71.808 C 56.870 72.074,56.138 72.402,55.574 72.535 C 55.009 72.669,54.127 73.143,53.613 73.589 C 53.098 74.035,52.369 74.400,51.993 74.400 C 51.616 74.400,50.864 74.749,50.322 75.175 C 49.780 75.602,48.901 76.063,48.368 76.202 C 47.836 76.340,46.410 77.038,45.200 77.754 L 43.000 79.055 42.779 87.027 C 42.531 95.956,42.629 95.200,41.720 95.200 C 41.199 95.200,41.150 95.310,41.511 95.671 C 43.052 97.212,43.578 95.087,43.692 86.862 L 43.800 79.032 45.036 78.780 C 45.717 78.641,46.662 78.138,47.136 77.664 C 47.611 77.189,48.452 76.800,49.004 76.800 C 49.556 76.800,50.320 76.435,50.702 75.989 C 51.084 75.543,52.082 74.993,52.919 74.768 C 53.757 74.542,54.793 74.007,55.221 73.579 C 55.649 73.151,56.422 72.800,56.938 72.800 C 57.454 72.800,58.186 72.458,58.564 72.040 C 58.943 71.621,59.846 71.168,60.571 71.032 C 61.297 70.896,62.201 70.441,62.581 70.021 C 62.961 69.602,63.974 69.140,64.834 68.994 C 65.693 68.849,66.505 68.553,66.639 68.337 C 66.772 68.121,67.268 67.788,67.741 67.597 C 68.511 67.287,68.476 67.249,67.400 67.236 C 66.740 67.228,65.750 67.470,65.200 67.775 M338.800 72.424 C 336.930 72.800,334.731 73.398,333.913 73.754 C 333.095 74.109,331.835 74.408,331.113 74.418 C 330.391 74.427,329.080 74.712,328.200 75.051 C 327.320 75.389,325.323 75.907,323.763 76.201 C 319.870 76.936,318.076 77.742,317.813 78.874 C 317.473 80.336,317.366 108.000,317.700 108.000 C 317.865 108.000,318.000 101.556,318.000 93.680 C 318.000 78.692,318.033 78.400,319.749 78.400 C 320.182 78.400,320.824 78.140,321.175 77.823 C 321.526 77.505,323.211 77.072,324.920 76.860 C 326.629 76.648,328.454 76.195,328.975 75.853 C 329.497 75.511,331.304 75.061,332.991 74.851 C 334.869 74.618,336.352 74.205,336.813 73.788 C 337.335 73.316,338.451 73.062,340.441 72.962 C 343.588 72.805,344.042 72.649,342.934 72.103 C 342.459 71.868,341.002 71.982,338.800 72.424 M18.600 91.141 C 15.712 92.477,15.012 92.818,14.000 93.382 C 13.450 93.688,10.840 94.981,8.200 96.255 C 5.560 97.528,2.891 98.982,2.269 99.485 C 1.647 99.988,0.882 100.400,0.569 100.400 C 0.078 100.400,0.000 119.658,0.000 241.000 C 0.000 353.213,0.101 381.600,0.500 381.601 C 0.775 381.601,1.618 382.130,2.374 382.776 C 3.130 383.422,4.199 384.064,4.750 384.202 C 5.300 384.340,6.212 384.778,6.776 385.174 C 7.339 385.571,8.250 386.032,8.800 386.200 C 9.350 386.368,10.278 386.841,10.862 387.252 C 11.446 387.664,12.186 388.000,12.508 388.000 C 12.829 388.000,13.521 388.335,14.046 388.745 C 14.571 389.155,15.450 389.630,16.000 389.801 C 16.550 389.972,17.627 390.447,18.394 390.856 C 19.161 391.265,20.241 391.575,20.794 391.546 C 21.796 391.491,21.796 391.490,20.854 391.312 C 20.333 391.213,19.829 390.832,19.732 390.466 C 19.618 390.030,19.066 389.764,18.132 389.697 C 17.319 389.638,16.199 389.166,15.523 388.597 C 14.872 388.048,13.973 387.600,13.527 387.600 C 13.081 387.600,12.181 387.150,11.527 386.600 C 10.873 386.050,9.973 385.600,9.527 385.600 C 9.081 385.600,8.181 385.150,7.527 384.600 C 6.873 384.050,5.947 383.593,5.469 383.584 C 4.991 383.575,4.014 383.066,3.298 382.453 L 1.997 381.339 1.898 241.069 C 1.844 163.921,1.895 100.800,2.011 100.800 C 2.127 100.800,2.813 100.260,3.536 99.600 C 4.258 98.940,5.262 98.400,5.766 98.400 C 6.271 98.400,7.169 97.950,7.762 97.400 C 8.356 96.850,9.254 96.400,9.759 96.400 C 10.263 96.400,11.002 96.039,11.402 95.598 C 11.801 95.157,12.828 94.608,13.685 94.377 C 14.541 94.147,15.593 93.607,16.021 93.179 C 16.496 92.704,17.346 92.400,18.200 92.400 C 19.191 92.400,19.600 92.221,19.600 91.787 C 19.600 91.450,20.005 91.011,20.500 90.812 C 21.012 90.607,21.141 90.440,20.800 90.426 C 20.470 90.412,19.480 90.734,18.600 91.141 M332.400 210.018 C 332.400 210.270,332.917 210.346,333.700 210.209 C 334.982 209.985,336.989 210.133,349.200 211.357 C 352.610 211.699,358.103 212.166,361.406 212.396 C 364.710 212.625,368.130 213.021,369.006 213.276 C 372.824 214.384,392.043 213.623,395.891 212.210 C 397.354 211.673,397.275 211.656,393.356 211.628 C 391.132 211.613,388.432 211.497,387.356 211.372 C 385.618 211.169,385.478 211.208,386.100 211.716 C 386.485 212.031,386.800 212.385,386.800 212.504 C 386.800 213.142,376.726 213.241,372.400 212.646 C 369.870 212.298,364.380 211.821,360.200 211.586 C 356.020 211.351,351.520 210.976,350.200 210.753 C 343.236 209.578,332.400 209.131,332.400 210.018 M326.600 272.492 C 326.160 272.750,324.540 272.932,323.000 272.896 L 320.200 272.832 321.600 273.462 C 322.709 273.961,324.675 274.103,331.058 274.146 C 335.490 274.176,339.034 274.335,338.935 274.500 C 338.686 274.911,342.071 274.869,342.727 274.454 C 343.302 274.089,339.645 273.600,336.340 273.600 C 335.161 273.600,333.810 273.285,332.904 272.800 C 331.228 271.902,327.888 271.739,326.600 272.492 M167.400 284.400 C 167.264 284.620,166.398 284.815,165.476 284.833 L 163.800 284.865 165.104 285.436 C 165.954 285.807,168.533 286.080,172.504 286.218 C 175.857 286.334,179.500 286.596,180.600 286.798 C 186.473 287.881,188.239 288.095,193.575 288.369 C 199.439 288.670,200.400 288.612,200.400 287.957 C 200.400 287.761,198.639 287.600,196.486 287.600 C 193.616 287.600,191.974 287.390,190.327 286.811 C 188.573 286.194,186.265 285.936,179.766 285.627 C 172.979 285.305,171.386 285.119,171.105 284.616 C 170.715 283.919,167.802 283.749,167.400 284.400 M317.517 388.100 C 317.612 400.582,317.737 403.504,318.195 403.964 C 318.948 404.720,321.354 405.529,323.800 405.848 C 324.900 405.991,326.278 406.350,326.862 406.645 C 327.445 406.940,329.245 407.385,330.862 407.635 C 332.478 407.884,334.261 408.325,334.825 408.615 C 336.883 409.674,342.057 410.398,343.185 409.784 C 344.130 409.270,344.007 409.231,341.394 409.216 C 339.360 409.204,338.171 408.976,337.069 408.386 C 336.234 407.938,334.347 407.414,332.875 407.222 C 331.404 407.030,329.621 406.576,328.913 406.213 C 328.204 405.851,326.368 405.420,324.831 405.255 C 323.120 405.073,321.746 404.694,321.287 404.278 C 320.874 403.905,320.075 403.600,319.511 403.600 C 318.001 403.600,318.000 403.584,318.000 387.567 C 318.000 379.445,317.865 372.800,317.700 372.800 C 317.535 372.800,317.453 379.685,317.517 388.100 M41.887 386.247 C 41.750 386.383,41.900 386.757,42.219 387.076 C 42.685 387.542,42.801 389.136,42.806 395.129 C 42.813 403.178,42.810 403.164,44.600 404.071 C 45.260 404.406,46.430 405.007,47.200 405.407 C 47.970 405.808,48.915 406.285,49.300 406.468 C 49.685 406.650,50.315 406.961,50.700 407.157 C 51.085 407.353,51.850 407.712,52.400 407.954 C 52.950 408.196,53.670 408.561,54.000 408.765 C 54.330 408.969,55.320 409.484,56.200 409.909 C 59.617 411.558,60.622 412.064,61.200 412.428 C 61.530 412.636,62.250 413.000,62.800 413.237 C 63.350 413.474,64.310 413.922,64.932 414.234 C 65.555 414.545,66.438 414.800,66.894 414.800 C 68.189 414.800,66.752 413.404,65.337 413.286 C 64.731 413.236,63.598 412.767,62.818 412.244 C 62.038 411.720,60.900 411.177,60.290 411.036 C 59.679 410.895,58.824 410.424,58.390 409.990 C 57.955 409.555,57.221 409.200,56.758 409.200 C 56.295 409.200,55.381 408.750,54.727 408.200 C 54.073 407.650,53.130 407.200,52.631 407.200 C 52.132 407.200,51.407 406.850,51.021 406.423 C 50.634 405.995,49.751 405.522,49.059 405.371 C 48.366 405.220,47.291 404.670,46.669 404.148 C 46.047 403.627,45.102 403.200,44.569 403.200 L 43.600 403.200 43.600 395.262 C 43.600 387.389,43.144 384.989,41.887 386.247 M94.070 407.884 C 94.475 408.372,94.614 410.871,94.658 418.495 L 94.716 428.468 95.824 429.625 C 96.433 430.261,97.577 430.992,98.366 431.249 C 99.155 431.506,100.229 432.050,100.754 432.458 C 101.279 432.866,102.019 433.200,102.400 433.200 C 102.781 433.200,103.521 433.535,104.046 433.945 C 104.571 434.355,105.450 434.828,106.000 434.997 C 106.550 435.167,107.450 435.616,108.000 435.997 C 108.550 436.378,109.661 436.903,110.468 437.165 C 111.275 437.427,112.151 437.900,112.415 438.218 C 112.678 438.535,113.592 438.982,114.447 439.213 C 115.301 439.443,116.000 439.790,116.000 439.984 C 116.000 440.179,116.675 440.555,117.500 440.820 C 118.325 441.084,119.279 441.544,119.620 441.840 C 119.961 442.136,121.025 442.656,121.985 442.995 C 122.945 443.334,123.960 443.801,124.240 444.033 C 124.601 444.333,125.018 444.308,125.674 443.950 C 126.656 443.413,124.814 442.513,122.562 442.431 C 122.101 442.414,121.414 442.058,121.036 441.640 C 120.657 441.221,119.769 440.771,119.061 440.638 C 118.354 440.505,117.467 440.037,117.091 439.598 C 116.715 439.159,116.071 438.800,115.660 438.800 C 115.248 438.800,114.252 438.352,113.445 437.805 C 112.639 437.258,111.489 436.694,110.890 436.553 C 110.290 436.411,109.440 435.982,109.000 435.600 C 108.560 435.218,107.660 434.777,107.000 434.620 C 106.340 434.463,105.478 433.990,105.084 433.568 C 104.691 433.145,104.051 432.800,103.662 432.800 C 103.273 432.800,102.345 432.350,101.600 431.800 C 100.855 431.250,99.939 430.800,99.566 430.800 C 99.192 430.800,98.192 430.226,97.343 429.524 L 95.800 428.248 95.920 418.535 C 96.044 408.436,95.908 407.424,94.403 407.310 C 93.656 407.254,93.611 407.331,94.070 407.884 M159.700 431.464 C 160.340 432.194,160.400 433.541,160.400 447.103 L 160.400 461.943 162.122 463.105 C 163.068 463.744,164.452 464.479,165.196 464.739 C 165.939 464.998,166.830 465.454,167.174 465.751 C 167.518 466.049,168.339 466.421,168.998 466.578 C 169.657 466.736,170.425 467.055,170.705 467.287 C 170.985 467.520,172.876 468.552,174.907 469.581 C 176.938 470.610,178.960 471.650,179.400 471.892 C 179.840 472.134,182.450 473.445,185.200 474.805 C 187.950 476.165,190.650 477.513,191.200 477.802 C 193.566 479.043,196.649 480.400,197.102 480.400 C 197.372 480.400,197.818 480.760,198.093 481.200 C 198.396 481.686,199.026 482.000,199.696 482.000 C 200.830 482.000,201.409 480.437,200.300 480.369 C 200.025 480.353,199.530 480.270,199.200 480.185 C 198.870 480.101,197.883 479.854,197.007 479.637 C 196.131 479.420,195.354 479.063,195.281 478.844 C 195.208 478.624,194.485 478.232,193.674 477.972 C 192.863 477.712,191.930 477.267,191.600 476.983 C 191.270 476.699,190.190 476.150,189.200 475.762 C 188.210 475.374,187.268 474.840,187.106 474.574 C 186.944 474.308,186.197 473.976,185.446 473.835 C 184.695 473.694,183.868 473.323,183.608 473.010 C 183.348 472.697,182.475 472.226,181.668 471.962 C 180.861 471.699,179.787 471.162,179.281 470.769 C 178.776 470.377,177.843 469.941,177.209 469.802 C 176.574 469.663,175.848 469.299,175.596 468.995 C 175.343 468.690,174.475 468.226,173.668 467.962 C 172.861 467.699,171.771 467.150,171.246 466.742 C 170.721 466.334,169.981 466.000,169.600 466.000 C 169.219 466.000,168.479 465.666,167.954 465.258 C 167.429 464.850,166.339 464.301,165.532 464.038 C 164.725 463.774,163.862 463.316,163.616 463.019 C 163.369 462.722,162.725 462.367,162.184 462.232 L 161.200 461.985 161.200 446.592 C 161.200 437.511,161.049 431.200,160.833 431.200 C 160.631 431.200,160.136 431.079,159.733 430.932 C 159.033 430.676,159.031 430.700,159.700 431.464 " stroke="none" fill="#be9380" fill-rule="evenodd"></path><path id="path3" d="M200.840 0.700 C 200.817 1.216,200.544 1.600,200.200 1.600 C 199.613 1.600,199.400 2.066,199.803 2.470 C 199.915 2.582,200.004 45.069,200.002 96.886 C 199.998 171.946,200.099 191.181,200.498 191.502 C 201.316 192.158,208.565 193.225,215.000 193.636 C 218.300 193.846,222.260 194.201,223.800 194.425 C 230.256 195.362,232.062 195.548,237.200 195.803 C 240.170 195.951,243.746 196.328,245.146 196.641 C 246.547 196.954,250.867 197.381,254.746 197.590 C 258.626 197.799,263.150 198.232,264.800 198.553 C 266.450 198.873,271.003 199.330,274.918 199.568 C 278.833 199.806,283.333 200.258,284.918 200.572 C 286.503 200.887,289.690 201.257,292.000 201.395 C 307.009 202.290,305.814 203.565,289.200 204.382 C 284.910 204.593,278.250 205.057,274.400 205.413 C 267.299 206.070,265.439 206.021,258.200 204.987 C 256.000 204.673,250.330 204.227,245.600 203.996 C 240.870 203.765,235.560 203.314,233.800 202.992 C 232.040 202.671,226.631 202.224,221.779 201.999 C 216.928 201.774,212.366 201.420,211.641 201.212 C 210.917 201.004,206.516 200.640,201.862 200.403 C 197.208 200.165,191.240 199.701,188.600 199.371 C 185.960 199.041,180.740 198.601,177.000 198.393 C 164.765 197.712,161.912 197.247,160.948 195.777 C 160.479 195.062,160.410 183.765,160.497 122.861 C 160.585 61.353,160.518 50.823,160.042 51.005 C 159.735 51.123,159.190 50.953,158.830 50.628 C 158.471 50.302,157.119 49.760,155.826 49.424 C 154.533 49.087,153.175 48.540,152.809 48.208 C 152.442 47.876,151.255 47.489,150.171 47.349 C 149.087 47.209,147.840 46.780,147.400 46.395 C 146.960 46.010,145.787 45.579,144.794 45.437 C 143.800 45.295,142.450 44.825,141.794 44.392 C 141.137 43.959,140.222 43.604,139.760 43.603 C 139.297 43.601,138.112 43.171,137.125 42.646 C 136.139 42.122,134.594 41.568,133.692 41.415 C 132.789 41.263,131.679 40.815,131.224 40.420 C 130.768 40.026,129.542 39.575,128.498 39.420 C 127.454 39.265,126.286 39.078,125.902 39.004 C 125.238 38.878,125.203 48.859,125.203 240.471 C 125.203 351.351,125.110 442.223,124.995 442.408 C 124.275 443.573,129.990 442.790,131.426 441.527 C 131.880 441.127,132.708 440.800,133.266 440.800 C 133.824 440.800,135.088 440.371,136.075 439.846 C 137.061 439.322,138.483 438.762,139.234 438.603 C 139.985 438.444,141.140 437.992,141.800 437.599 C 142.460 437.206,143.760 436.761,144.688 436.609 C 145.617 436.458,146.787 436.015,147.288 435.627 C 147.790 435.238,148.979 434.818,149.931 434.694 C 150.883 434.569,151.975 434.185,152.357 433.839 C 152.740 433.493,153.671 433.087,154.426 432.937 C 155.182 432.788,156.596 432.243,157.569 431.727 C 158.542 431.212,159.622 430.880,159.969 430.990 C 160.542 431.172,160.591 424.553,160.497 358.575 C 160.424 307.483,160.521 285.722,160.822 285.158 C 161.212 284.430,161.506 284.382,164.023 284.630 C 165.987 284.823,166.968 284.759,167.390 284.409 C 167.742 284.116,168.682 283.984,169.692 284.084 C 170.728 284.187,172.225 283.967,173.496 283.525 C 175.009 282.999,177.733 282.684,183.296 282.392 C 187.533 282.170,192.620 281.810,194.600 281.593 C 200.236 280.975,206.740 280.474,215.085 280.015 C 219.312 279.782,223.272 279.397,223.885 279.160 C 224.498 278.922,228.780 278.572,233.400 278.382 C 241.283 278.058,249.393 277.375,250.030 276.981 C 250.287 276.823,266.260 275.910,269.600 275.863 C 271.866 275.832,292.772 276.774,295.521 277.032 C 297.958 277.260,298.638 278.400,296.337 278.400 C 295.916 278.400,295.156 278.672,294.648 279.005 C 293.982 279.441,291.774 279.719,286.762 279.996 C 277.860 280.489,275.205 280.742,272.000 281.404 C 270.570 281.700,266.070 282.144,262.000 282.392 C 257.930 282.640,253.970 283.007,253.200 283.207 C 252.430 283.408,247.879 283.855,243.087 284.201 C 238.295 284.547,233.924 285.001,233.374 285.210 C 232.825 285.419,229.275 285.774,225.487 286.000 C 221.699 286.225,217.520 286.590,216.200 286.810 C 211.538 287.587,207.759 287.957,204.200 287.985 C 202.220 288.000,200.420 288.144,200.200 288.306 C 199.934 288.501,199.867 320.610,200.000 383.938 C 200.110 436.374,200.065 479.360,199.900 479.462 C 199.359 479.796,199.585 480.303,200.366 480.507 C 200.788 480.617,201.283 480.579,201.466 480.421 C 201.650 480.264,202.565 479.917,203.500 479.651 C 204.435 479.385,205.200 479.009,205.200 478.815 C 205.200 478.621,205.875 478.242,206.700 477.973 C 207.525 477.704,208.613 477.162,209.119 476.769 C 209.624 476.377,210.557 475.941,211.191 475.802 C 211.826 475.663,212.552 475.299,212.804 474.995 C 213.057 474.690,213.925 474.226,214.732 473.962 C 215.539 473.699,216.629 473.150,217.154 472.742 C 217.679 472.334,218.409 472.000,218.776 472.000 C 219.144 472.000,220.042 471.559,220.772 471.021 C 221.501 470.482,222.604 469.931,223.222 469.795 C 223.839 469.660,224.552 469.299,224.804 468.995 C 225.057 468.690,225.925 468.229,226.732 467.970 C 227.539 467.711,228.470 467.274,228.800 467.000 C 229.130 466.726,230.061 466.289,230.868 466.030 C 231.675 465.771,232.543 465.310,232.796 465.005 C 233.048 464.701,233.761 464.340,234.378 464.205 C 234.996 464.069,236.086 463.527,236.800 463.000 C 237.514 462.473,238.616 461.928,239.249 461.789 C 239.882 461.650,240.400 461.385,240.400 461.200 C 240.400 461.016,241.300 460.565,242.400 460.200 C 243.500 459.835,244.400 459.384,244.400 459.199 C 244.400 459.014,245.075 458.645,245.900 458.380 C 246.725 458.116,247.679 457.656,248.020 457.360 C 248.361 457.064,249.403 456.552,250.337 456.222 C 251.270 455.893,252.309 455.348,252.645 455.012 C 252.982 454.675,253.580 454.400,253.975 454.400 C 254.369 454.400,255.158 454.034,255.727 453.586 C 256.297 453.138,257.356 452.569,258.081 452.322 C 258.807 452.074,259.829 451.541,260.354 451.136 C 260.879 450.731,261.609 450.400,261.976 450.400 C 262.344 450.400,263.255 449.950,264.000 449.400 C 264.745 448.850,265.656 448.400,266.024 448.400 C 266.391 448.400,267.121 448.066,267.646 447.658 C 268.171 447.250,269.261 446.701,270.068 446.438 C 270.875 446.174,271.743 445.710,271.996 445.405 C 272.248 445.101,272.974 444.737,273.609 444.598 C 274.243 444.459,275.176 444.023,275.681 443.631 C 276.187 443.238,277.275 442.696,278.100 442.427 C 278.925 442.158,279.600 441.779,279.600 441.584 C 279.600 441.390,280.312 441.039,281.182 440.805 C 282.052 440.571,283.037 440.106,283.370 439.773 C 283.703 439.439,284.567 438.965,285.288 438.719 C 286.010 438.473,287.023 437.946,287.541 437.546 C 288.058 437.147,289.107 436.704,289.873 436.560 C 290.638 436.416,291.358 436.054,291.473 435.754 C 291.588 435.454,292.421 435.010,293.325 434.766 C 294.228 434.523,295.155 434.091,295.384 433.806 C 295.613 433.521,296.461 433.079,297.268 432.824 C 298.075 432.568,298.945 432.107,299.200 431.800 C 299.455 431.493,300.325 431.029,301.132 430.770 C 301.939 430.511,302.870 430.073,303.200 429.797 C 303.530 429.521,304.205 429.171,304.700 429.020 L 305.600 428.746 305.606 403.473 C 305.612 375.538,305.529 376.458,308.110 375.922 C 308.937 375.750,310.066 375.313,310.619 374.951 C 311.172 374.589,312.454 374.137,313.469 373.947 C 314.484 373.758,315.587 373.377,315.919 373.101 C 316.251 372.826,316.810 372.649,317.161 372.708 C 317.744 372.807,317.791 368.446,317.695 323.155 C 317.632 293.150,317.737 273.316,317.961 273.047 C 318.209 272.747,319.494 272.674,321.865 272.824 C 324.367 272.983,325.716 272.895,326.480 272.524 C 327.074 272.236,328.335 272.000,329.282 272.000 C 332.098 272.000,331.972 273.438,332.092 239.941 L 332.200 210.096 328.000 209.822 C 322.536 209.466,318.519 208.569,317.993 207.588 C 317.732 207.099,317.629 189.770,317.697 157.420 L 317.800 108.000 316.400 107.998 C 315.630 107.998,314.414 107.640,313.697 107.203 C 312.981 106.766,311.631 106.290,310.697 106.144 C 309.764 105.999,308.512 105.474,307.915 104.978 C 307.318 104.482,306.598 103.999,306.315 103.905 C 305.905 103.769,305.759 98.600,305.600 78.618 L 305.400 53.503 303.382 52.452 C 302.273 51.873,301.005 51.220,300.566 51.000 C 298.141 49.785,295.276 48.293,294.400 47.788 C 293.850 47.471,293.079 47.209,292.687 47.206 C 292.296 47.203,291.872 46.932,291.746 46.604 C 291.621 46.277,290.778 45.809,289.873 45.566 C 288.968 45.322,287.808 44.793,287.295 44.389 C 286.782 43.986,285.819 43.536,285.154 43.390 C 284.490 43.244,283.859 42.897,283.752 42.619 C 283.645 42.342,282.803 41.875,281.879 41.582 C 280.956 41.290,279.878 40.724,279.484 40.325 C 279.091 39.926,278.524 39.600,278.225 39.600 C 277.926 39.600,276.655 39.060,275.400 38.400 C 274.145 37.740,272.867 37.200,272.559 37.200 C 272.252 37.200,272.000 37.035,272.000 36.833 C 272.000 36.631,271.145 36.146,270.100 35.754 C 269.055 35.363,268.064 34.822,267.898 34.552 C 267.731 34.283,267.011 33.938,266.298 33.787 C 265.584 33.635,264.730 33.290,264.400 33.020 C 263.648 32.405,258.060 29.600,257.586 29.600 C 257.393 29.600,256.572 29.150,255.762 28.600 C 254.951 28.050,253.976 27.600,253.593 27.600 C 253.211 27.600,252.682 27.339,252.417 27.020 C 252.152 26.702,251.296 26.230,250.514 25.971 C 249.731 25.713,248.461 25.074,247.690 24.551 C 246.919 24.028,245.948 23.600,245.532 23.600 C 245.115 23.600,244.679 23.350,244.562 23.045 C 244.445 22.739,243.534 22.261,242.538 21.983 C 241.542 21.704,240.641 21.251,240.536 20.977 C 240.431 20.703,239.745 20.366,239.013 20.229 C 238.280 20.091,237.243 19.634,236.707 19.213 C 236.172 18.792,234.983 18.147,234.067 17.780 C 233.150 17.413,232.400 16.976,232.400 16.809 C 232.400 16.641,231.590 16.277,230.600 16.000 C 229.610 15.723,228.800 15.353,228.800 15.179 C 228.800 15.005,228.125 14.645,227.300 14.380 C 226.475 14.116,225.518 13.654,225.174 13.354 C 224.830 13.055,223.930 12.602,223.174 12.348 C 222.418 12.094,221.530 11.664,221.200 11.393 C 220.442 10.768,214.655 8.000,214.107 8.000 C 213.882 8.000,213.482 7.739,213.217 7.420 C 212.952 7.102,212.075 6.626,211.268 6.362 C 210.461 6.099,209.387 5.562,208.881 5.169 C 208.376 4.777,207.432 4.339,206.784 4.196 C 206.135 4.054,205.469 3.709,205.302 3.430 C 205.136 3.150,204.197 2.669,203.215 2.361 C 201.892 1.945,201.359 1.541,201.155 0.800 C 200.894 -0.148,200.878 -0.154,200.840 0.700 M66.830 68.164 C 66.509 68.550,66.494 68.811,66.781 68.988 C 67.362 69.347,67.372 412.468,66.791 413.049 C 65.918 413.922,67.683 414.850,68.958 414.188 C 69.577 413.867,71.100 413.438,72.342 413.234 C 73.584 413.031,75.410 412.494,76.400 412.041 C 77.390 411.588,78.833 411.214,79.606 411.209 C 80.379 411.204,81.685 410.839,82.508 410.398 C 83.331 409.957,85.192 409.428,86.644 409.222 C 88.096 409.017,89.604 408.558,89.997 408.203 C 90.423 407.817,91.531 407.526,92.752 407.479 L 94.793 407.400 94.792 241.000 L 94.791 74.600 92.602 74.568 C 91.110 74.546,90.166 74.312,89.636 73.833 C 89.174 73.415,87.782 72.996,86.200 72.800 C 84.737 72.619,83.239 72.204,82.870 71.878 C 82.502 71.553,81.210 71.162,80.000 71.009 C 78.790 70.857,77.161 70.410,76.381 70.015 C 75.601 69.620,73.981 69.169,72.781 69.011 C 71.581 68.854,70.077 68.472,69.439 68.163 C 67.976 67.454,67.419 67.454,66.830 68.164 M343.102 139.153 C 343.183 191.491,343.310 205.590,343.702 205.902 C 344.393 206.452,349.463 207.112,356.800 207.605 C 360.210 207.835,364.350 208.273,366.000 208.578 C 367.650 208.883,370.890 209.244,373.200 209.379 C 380.205 209.789,381.876 209.991,383.675 210.643 C 386.028 211.496,396.917 211.932,397.789 211.209 C 398.331 210.759,398.400 204.536,398.400 155.802 L 398.400 100.902 396.936 99.651 C 396.130 98.963,395.175 98.400,394.813 98.400 C 394.451 98.400,393.545 97.950,392.800 97.400 C 392.055 96.850,391.155 96.400,390.800 96.400 C 390.445 96.400,389.545 95.950,388.800 95.400 C 388.055 94.850,387.155 94.400,386.800 94.400 C 386.445 94.400,385.545 93.950,384.800 93.400 C 384.055 92.850,383.144 92.400,382.776 92.400 C 382.409 92.400,381.679 92.069,381.154 91.664 C 380.629 91.259,379.607 90.726,378.881 90.478 C 378.156 90.231,377.097 89.662,376.527 89.214 C 375.958 88.766,375.184 88.400,374.808 88.400 C 374.432 88.400,373.601 87.950,372.962 87.400 C 372.323 86.851,371.423 86.401,370.962 86.400 C 370.501 86.400,369.798 86.040,369.400 85.600 C 369.002 85.160,368.389 84.797,368.038 84.794 C 367.687 84.791,366.950 84.536,366.400 84.227 C 364.080 82.925,358.879 80.400,358.517 80.400 C 358.301 80.400,357.798 80.040,357.400 79.600 C 357.002 79.160,356.344 78.800,355.938 78.800 C 355.532 78.800,354.858 78.458,354.441 78.041 C 354.023 77.623,353.145 77.164,352.490 77.020 C 351.835 76.876,350.701 76.318,349.972 75.779 C 349.242 75.241,348.355 74.800,348.000 74.800 C 347.645 74.800,346.745 74.350,346.000 73.800 C 345.255 73.250,344.275 72.800,343.822 72.800 L 343.000 72.800 343.102 139.153 M19.715 91.476 C 19.571 91.853,19.665 92.222,19.928 92.309 C 20.614 92.538,20.614 389.462,19.928 389.691 C 19.665 389.778,19.571 390.147,19.715 390.524 C 20.056 391.413,22.484 391.425,23.827 390.546 C 24.417 390.159,26.005 389.814,27.713 389.702 C 29.360 389.594,31.029 389.239,31.600 388.876 C 32.150 388.526,34.250 388.026,36.266 387.766 C 38.283 387.505,40.473 387.023,41.133 386.693 C 41.794 386.364,42.484 386.244,42.667 386.427 C 42.850 386.610,43.000 321.174,43.000 241.014 C 43.000 135.048,42.880 95.368,42.560 95.633 C 42.286 95.861,41.631 95.755,40.821 95.350 C 40.106 94.994,38.055 94.538,36.261 94.338 C 34.467 94.138,32.268 93.620,31.374 93.187 C 30.364 92.698,28.917 92.400,27.558 92.400 C 26.159 92.400,24.803 92.111,23.800 91.600 C 21.859 90.610,20.068 90.556,19.715 91.476 M391.167 269.362 C 391.075 269.451,388.570 269.724,385.600 269.968 C 376.662 270.704,371.877 271.220,370.390 271.609 C 369.615 271.812,365.813 272.159,361.941 272.381 C 358.070 272.602,353.852 273.057,352.567 273.392 C 351.283 273.726,348.695 274.003,346.816 274.006 C 343.505 274.012,341.755 274.466,342.600 275.100 C 342.864 275.298,343.000 298.067,343.000 342.000 C 343.000 385.937,342.864 408.700,342.600 408.894 C 342.380 409.056,342.875 409.191,343.700 409.194 C 344.659 409.198,345.481 408.919,345.979 408.421 C 346.407 407.993,347.487 407.446,348.379 407.206 C 349.271 406.966,350.000 406.616,350.000 406.428 C 350.000 406.240,350.765 405.782,351.700 405.410 C 352.635 405.038,353.670 404.501,354.000 404.217 C 354.330 403.933,355.261 403.489,356.068 403.230 C 356.875 402.971,357.752 402.498,358.017 402.180 C 358.282 401.861,358.801 401.600,359.171 401.600 C 359.542 401.600,360.455 401.150,361.200 400.600 C 361.945 400.050,362.855 399.600,363.222 399.600 C 363.588 399.600,364.525 399.168,365.303 398.640 C 366.081 398.112,367.141 397.547,367.659 397.385 C 368.176 397.223,369.029 396.755,369.554 396.345 C 370.079 395.935,370.809 395.600,371.176 395.600 C 371.544 395.600,372.455 395.150,373.200 394.600 C 373.945 394.050,374.808 393.600,375.116 393.600 C 375.424 393.600,376.191 393.233,376.821 392.785 C 377.450 392.337,378.558 391.768,379.282 391.521 C 380.007 391.274,381.029 390.741,381.554 390.336 C 382.079 389.931,382.816 389.600,383.192 389.600 C 383.568 389.600,384.183 389.261,384.558 388.846 C 384.934 388.431,385.808 387.978,386.501 387.840 C 387.194 387.701,388.130 387.253,388.581 386.843 C 389.031 386.434,390.061 385.887,390.868 385.629 C 391.675 385.370,392.548 384.903,392.808 384.590 C 393.068 384.277,393.847 383.914,394.540 383.782 C 395.233 383.651,396.385 383.019,397.100 382.377 L 398.400 381.211 398.400 325.686 C 398.400 283.032,398.289 270.049,397.920 269.680 C 397.479 269.239,391.579 268.961,391.167 269.362 " stroke="none" fill="#f58536" fill-rule="evenodd"></path><path id="path4" d="M197.200 0.555 C 197.200 0.875,196.597 1.224,195.778 1.378 C 194.995 1.525,194.015 1.985,193.600 2.400 C 193.185 2.815,192.200 3.276,191.413 3.424 C 190.625 3.572,189.760 4.004,189.490 4.385 C 189.221 4.767,188.316 5.206,187.479 5.361 C 186.642 5.517,185.862 5.895,185.744 6.202 C 185.626 6.508,184.646 7.053,183.565 7.412 C 182.484 7.771,181.600 8.223,181.600 8.416 C 181.600 8.610,180.839 8.996,179.910 9.274 C 178.980 9.553,177.900 10.100,177.510 10.490 C 177.119 10.881,176.464 11.200,176.054 11.200 C 175.644 11.200,174.879 11.534,174.354 11.942 C 173.829 12.350,172.712 12.908,171.872 13.182 C 171.032 13.456,170.253 13.918,170.142 14.208 C 170.030 14.498,169.067 14.944,168.000 15.200 C 166.933 15.456,165.966 15.911,165.851 16.211 C 165.736 16.510,165.032 16.870,164.285 17.010 C 163.534 17.151,162.186 17.944,161.264 18.786 L 159.600 20.308 159.600 34.327 C 159.600 48.047,159.583 48.352,158.791 48.603 C 157.717 48.944,155.674 48.469,154.416 47.587 C 153.857 47.195,152.720 46.759,151.888 46.617 C 151.057 46.475,149.797 46.026,149.088 45.618 C 148.380 45.210,146.990 44.749,146.000 44.594 C 145.010 44.440,143.891 44.040,143.514 43.708 C 143.137 43.375,142.003 42.948,140.994 42.759 C 139.985 42.571,138.901 42.158,138.586 41.843 C 138.270 41.527,137.130 41.080,136.053 40.849 C 134.976 40.618,133.488 40.082,132.747 39.659 C 132.006 39.235,130.699 38.766,129.843 38.615 C 128.986 38.465,128.035 38.092,127.730 37.787 C 126.699 36.756,124.457 36.609,123.478 37.508 C 122.995 37.951,122.039 38.432,121.354 38.577 C 120.669 38.721,119.727 39.195,119.262 39.628 C 118.796 40.062,117.881 40.524,117.228 40.654 C 116.575 40.785,115.737 41.228,115.366 41.638 C 114.994 42.049,114.080 42.499,113.335 42.639 C 112.590 42.778,111.760 43.204,111.490 43.585 C 111.221 43.967,110.350 44.399,109.555 44.547 C 108.760 44.695,107.803 45.154,107.429 45.568 C 107.054 45.982,106.154 46.432,105.429 46.568 C 104.703 46.704,103.803 47.154,103.429 47.568 C 103.054 47.982,102.125 48.438,101.365 48.580 C 100.604 48.723,99.763 49.191,99.495 49.620 C 99.200 50.091,98.565 50.400,97.888 50.400 C 97.122 50.400,96.269 50.895,95.184 51.969 L 93.600 53.537 93.600 63.569 C 93.600 73.749,93.484 74.524,92.154 73.194 C 91.931 72.971,90.432 72.513,88.823 72.178 C 87.215 71.843,85.361 71.290,84.704 70.951 C 84.047 70.611,82.495 70.234,81.255 70.114 C 80.015 69.993,78.680 69.615,78.288 69.274 C 77.896 68.933,76.385 68.511,74.929 68.335 C 73.444 68.157,71.965 67.730,71.560 67.364 C 70.342 66.262,65.896 66.104,64.873 67.127 C 64.417 67.583,63.400 68.076,62.611 68.224 C 61.823 68.372,61.010 68.808,60.804 69.193 C 60.588 69.596,59.737 70.004,58.799 70.154 C 57.903 70.297,57.068 70.679,56.944 71.003 C 56.819 71.326,56.024 71.778,55.177 72.006 C 54.329 72.234,53.356 72.702,53.013 73.044 C 52.670 73.387,51.717 73.851,50.895 74.075 C 50.073 74.300,49.078 74.824,48.684 75.242 C 48.291 75.659,47.597 76.000,47.142 76.000 C 46.687 76.000,45.781 76.450,45.127 77.000 C 44.473 77.550,43.686 78.000,43.377 78.000 C 42.447 78.000,42.200 79.871,42.200 86.900 C 42.200 93.315,42.166 93.603,41.400 93.656 C 39.408 93.795,37.222 93.490,35.113 92.780 C 33.855 92.357,31.785 91.892,30.513 91.748 C 29.241 91.604,27.300 91.132,26.200 90.699 C 23.439 89.611,18.555 89.508,17.811 90.521 C 17.519 90.918,16.659 91.414,15.898 91.624 C 15.138 91.834,14.124 92.345,13.645 92.761 C 13.167 93.176,12.141 93.635,11.366 93.780 C 10.592 93.925,9.865 94.287,9.751 94.583 C 9.638 94.879,8.917 95.239,8.150 95.383 C 7.383 95.527,6.424 95.976,6.018 96.382 C 5.613 96.787,4.746 97.236,4.091 97.380 C 3.436 97.524,2.486 98.082,1.981 98.621 C 1.475 99.159,0.822 99.600,0.530 99.600 C 0.239 99.600,0.000 99.780,0.000 100.000 C 0.000 100.687,1.090 100.439,2.269 99.485 C 2.891 98.982,5.560 97.528,8.200 96.255 C 10.840 94.981,13.450 93.688,14.000 93.382 C 15.083 92.778,16.086 92.292,18.662 91.121 C 20.468 90.300,21.441 90.397,23.886 91.644 C 24.805 92.113,26.201 92.400,27.558 92.400 C 28.917 92.400,30.364 92.698,31.374 93.187 C 32.268 93.620,34.440 94.162,36.200 94.393 C 37.960 94.624,40.075 94.920,40.900 95.050 C 42.755 95.344,42.520 96.351,42.779 87.027 L 43.000 79.055 45.200 77.754 C 46.410 77.038,47.836 76.340,48.368 76.202 C 48.901 76.063,49.780 75.602,50.322 75.175 C 50.864 74.749,51.616 74.400,51.993 74.400 C 52.369 74.400,53.098 74.035,53.613 73.589 C 54.127 73.143,55.009 72.669,55.574 72.535 C 56.138 72.402,56.870 72.074,57.200 71.808 C 57.530 71.541,59.240 70.648,61.000 69.824 C 62.760 69.000,64.678 68.072,65.262 67.763 C 66.643 67.031,67.970 67.048,68.811 67.810 C 69.181 68.145,70.636 68.606,72.042 68.833 C 73.449 69.061,75.320 69.579,76.200 69.986 C 77.080 70.392,78.790 70.850,80.000 71.005 C 81.210 71.160,82.502 71.553,82.870 71.878 C 83.239 72.204,84.737 72.619,86.200 72.800 C 87.663 72.981,89.166 73.407,89.540 73.746 C 89.915 74.085,90.945 74.478,91.830 74.619 C 94.554 75.055,94.590 74.913,94.667 63.515 L 94.733 53.554 95.737 52.624 C 96.289 52.112,98.149 51.021,99.870 50.199 C 101.592 49.378,103.270 48.558,103.600 48.377 C 103.930 48.197,106.630 46.848,109.600 45.379 C 112.570 43.909,115.270 42.557,115.600 42.374 C 121.956 38.839,124.853 37.727,125.787 38.461 C 126.308 38.871,127.560 39.319,128.569 39.458 C 129.578 39.596,130.774 40.031,131.227 40.424 C 131.681 40.817,132.789 41.263,133.692 41.415 C 134.594 41.568,136.139 42.122,137.125 42.646 C 138.112 43.171,139.297 43.601,139.760 43.603 C 140.222 43.604,141.137 43.959,141.794 44.392 C 142.450 44.825,143.800 45.295,144.794 45.437 C 145.787 45.579,146.960 46.010,147.400 46.395 C 147.840 46.780,149.087 47.209,150.171 47.349 C 151.255 47.489,152.442 47.876,152.809 48.208 C 153.381 48.726,156.079 49.625,159.044 50.284 C 160.328 50.570,160.387 49.886,160.407 34.600 C 160.426 20.452,160.547 19.200,161.895 19.200 C 162.119 19.200,162.518 18.939,162.783 18.620 C 163.048 18.302,163.925 17.826,164.732 17.562 C 165.539 17.299,166.629 16.750,167.154 16.342 C 167.679 15.934,168.506 15.600,168.992 15.600 C 169.478 15.600,170.187 15.256,170.567 14.836 C 170.948 14.416,171.710 13.959,172.262 13.820 C 172.813 13.682,173.925 13.137,174.732 12.609 C 175.540 12.081,176.688 11.530,177.284 11.385 C 177.880 11.240,178.576 10.870,178.830 10.564 C 179.085 10.257,179.992 9.818,180.847 9.587 C 181.701 9.357,182.400 9.010,182.400 8.816 C 182.400 8.621,183.075 8.243,183.900 7.975 C 184.725 7.708,185.850 7.178,186.400 6.797 C 186.950 6.416,187.824 5.973,188.341 5.812 C 188.859 5.652,189.919 5.088,190.697 4.560 C 191.475 4.032,192.387 3.600,192.724 3.600 C 193.061 3.600,193.621 3.361,193.969 3.068 C 194.316 2.775,195.455 2.220,196.500 1.835 C 198.287 1.176,199.120 0.000,197.800 0.000 C 197.470 0.000,197.200 0.250,197.200 0.555 M201.272 0.900 C 201.368 1.575,201.851 1.940,203.200 2.361 C 204.190 2.669,205.136 3.150,205.302 3.430 C 205.469 3.709,206.135 4.054,206.784 4.196 C 207.432 4.339,208.376 4.777,208.881 5.169 C 209.387 5.562,210.461 6.099,211.268 6.362 C 212.075 6.626,212.952 7.102,213.217 7.420 C 213.482 7.739,213.882 8.000,214.107 8.000 C 214.655 8.000,220.442 10.768,221.200 11.393 C 221.530 11.664,222.418 12.094,223.174 12.348 C 223.930 12.602,224.830 13.055,225.174 13.354 C 225.518 13.654,226.475 14.116,227.300 14.380 C 228.125 14.645,228.800 15.005,228.800 15.179 C 228.800 15.353,229.610 15.723,230.600 16.000 C 231.590 16.277,232.400 16.641,232.400 16.809 C 232.400 16.976,233.150 17.413,234.067 17.780 C 234.983 18.147,236.172 18.792,236.707 19.213 C 237.243 19.634,238.280 20.091,239.013 20.229 C 239.745 20.366,240.431 20.703,240.536 20.977 C 240.641 21.251,241.542 21.704,242.538 21.983 C 243.534 22.261,244.445 22.739,244.562 23.045 C 244.679 23.350,245.115 23.600,245.532 23.600 C 245.948 23.600,246.919 24.028,247.690 24.551 C 248.461 25.074,249.731 25.713,250.514 25.971 C 251.296 26.230,252.152 26.702,252.417 27.020 C 252.682 27.339,253.211 27.600,253.593 27.600 C 253.976 27.600,254.951 28.050,255.762 28.600 C 256.572 29.150,257.393 29.600,257.586 29.600 C 258.060 29.600,263.648 32.405,264.400 33.020 C 264.730 33.290,265.584 33.635,266.298 33.787 C 267.011 33.938,267.731 34.283,267.898 34.552 C 268.064 34.822,269.055 35.363,270.100 35.754 C 271.145 36.146,272.000 36.631,272.000 36.833 C 272.000 37.035,272.252 37.200,272.559 37.200 C 272.867 37.200,274.145 37.740,275.400 38.400 C 276.655 39.060,277.926 39.600,278.225 39.600 C 278.524 39.600,279.091 39.926,279.484 40.325 C 279.878 40.724,280.956 41.290,281.879 41.582 C 282.803 41.875,283.645 42.342,283.752 42.619 C 283.859 42.897,284.490 43.244,285.154 43.390 C 285.819 43.536,286.782 43.986,287.295 44.389 C 287.808 44.793,288.968 45.322,289.873 45.566 C 290.778 45.809,291.621 46.277,291.746 46.604 C 291.872 46.932,292.296 47.203,292.687 47.206 C 293.079 47.209,293.850 47.471,294.400 47.788 C 295.276 48.293,298.141 49.785,300.566 51.000 C 301.005 51.220,302.273 51.873,303.382 52.452 L 305.400 53.503 305.600 78.618 C 305.759 98.600,305.905 103.769,306.315 103.905 C 306.598 103.999,307.318 104.482,307.915 104.978 C 308.512 105.474,309.764 105.999,310.697 106.144 C 311.631 106.290,312.981 106.766,313.697 107.203 C 317.568 109.563,317.600 109.448,317.600 92.941 C 317.600 76.261,317.144 77.491,323.800 76.206 C 325.340 75.909,327.320 75.389,328.200 75.051 C 329.080 74.712,330.391 74.427,331.113 74.418 C 331.835 74.408,333.095 74.110,333.913 73.756 C 339.134 71.497,342.919 71.601,346.402 74.100 C 346.939 74.485,347.663 74.800,348.011 74.800 C 348.360 74.800,349.242 75.241,349.972 75.779 C 350.701 76.318,351.835 76.876,352.490 77.020 C 353.145 77.164,354.023 77.623,354.441 78.041 C 354.858 78.458,355.532 78.800,355.938 78.800 C 356.344 78.800,357.002 79.160,357.400 79.600 C 357.798 80.040,358.301 80.400,358.517 80.400 C 358.879 80.400,364.080 82.925,366.400 84.227 C 366.950 84.536,367.687 84.791,368.038 84.794 C 368.389 84.797,369.002 85.160,369.400 85.600 C 369.798 86.040,370.501 86.400,370.962 86.400 C 371.423 86.401,372.323 86.851,372.962 87.400 C 373.601 87.950,374.432 88.400,374.808 88.400 C 375.184 88.400,375.958 88.766,376.527 89.214 C 377.097 89.662,378.156 90.231,378.881 90.478 C 379.607 90.726,380.629 91.259,381.154 91.664 C 381.679 92.069,382.409 92.400,382.776 92.400 C 383.144 92.400,384.055 92.850,384.800 93.400 C 385.545 93.950,386.445 94.400,386.800 94.400 C 387.155 94.400,388.055 94.850,388.800 95.400 C 389.545 95.950,390.445 96.400,390.800 96.400 C 391.155 96.400,392.055 96.850,392.800 97.400 C 393.545 97.950,394.451 98.400,394.813 98.400 C 395.175 98.400,396.130 98.963,396.936 99.651 L 398.400 100.902 398.400 155.789 C 398.400 208.056,398.366 210.707,397.683 211.325 C 396.523 212.374,392.229 213.260,386.627 213.606 C 381.753 213.907,381.941 213.921,389.400 213.814 C 394.955 213.735,397.797 213.536,398.700 213.162 L 400.000 212.625 400.000 156.112 C 400.000 115.104,399.879 99.600,399.558 99.600 C 399.315 99.600,398.581 99.150,397.927 98.600 C 397.273 98.050,396.427 97.600,396.047 97.600 C 395.667 97.600,394.745 97.150,394.000 96.600 C 393.255 96.050,392.344 95.600,391.976 95.600 C 391.609 95.600,390.879 95.266,390.354 94.858 C 389.829 94.450,388.739 93.901,387.932 93.638 C 387.125 93.374,386.257 92.910,386.004 92.605 C 385.752 92.301,385.032 91.939,384.405 91.801 C 383.779 91.664,382.858 91.197,382.359 90.765 C 381.860 90.332,380.991 89.869,380.426 89.737 C 379.862 89.604,379.040 89.178,378.600 88.791 C 378.160 88.403,377.227 87.965,376.528 87.817 C 375.828 87.670,375.048 87.299,374.796 86.995 C 374.543 86.690,373.675 86.230,372.868 85.971 C 372.061 85.713,371.040 85.177,370.600 84.780 C 370.160 84.384,369.260 83.932,368.600 83.777 C 367.940 83.622,367.040 83.178,366.600 82.791 C 366.160 82.403,365.203 81.960,364.473 81.805 C 363.743 81.651,363.057 81.292,362.947 81.007 C 362.838 80.722,361.950 80.266,360.974 79.993 C 359.998 79.720,359.200 79.354,359.200 79.181 C 359.200 79.008,358.350 78.542,357.312 78.145 C 356.274 77.749,355.104 77.104,354.712 76.712 C 354.320 76.320,353.578 76.000,353.062 76.000 C 352.546 76.000,351.807 75.650,351.421 75.223 C 351.034 74.795,350.151 74.322,349.459 74.171 C 348.766 74.020,347.691 73.470,347.069 72.948 C 346.447 72.427,345.725 72.000,345.463 72.000 C 345.202 72.000,344.352 71.659,343.574 71.242 C 342.282 70.550,342.042 70.535,340.780 71.077 C 340.021 71.402,338.236 71.838,336.814 72.045 C 335.391 72.252,333.791 72.707,333.258 73.056 C 332.725 73.406,330.922 73.861,329.251 74.069 C 327.580 74.276,325.919 74.711,325.560 75.036 C 325.197 75.365,323.513 75.783,321.765 75.979 C 316.898 76.525,317.201 75.452,317.194 92.144 C 317.187 107.324,317.133 107.744,315.347 106.484 C 314.716 106.039,313.551 105.565,312.757 105.430 C 311.964 105.295,310.299 104.635,309.057 103.963 L 306.800 102.740 306.800 78.037 L 306.800 53.334 305.215 52.060 C 304.343 51.359,303.038 50.669,302.315 50.527 C 301.592 50.385,300.779 49.959,300.510 49.580 C 300.240 49.202,299.410 48.778,298.665 48.639 C 297.920 48.499,296.990 48.031,296.600 47.600 C 296.210 47.169,295.297 46.704,294.571 46.568 C 293.846 46.432,292.952 45.989,292.585 45.583 C 292.217 45.177,291.351 44.726,290.659 44.579 C 289.966 44.433,289.040 43.997,288.600 43.609 C 288.160 43.222,287.274 42.780,286.632 42.628 C 285.989 42.475,285.035 42.014,284.513 41.603 C 283.990 41.192,283.031 40.739,282.381 40.596 C 281.732 40.453,281.200 40.186,281.200 40.001 C 281.200 39.817,280.345 39.351,279.300 38.966 C 278.255 38.582,277.028 37.937,276.574 37.533 C 276.120 37.130,275.362 36.800,274.890 36.800 C 274.418 36.800,273.709 36.459,273.316 36.042 C 272.922 35.624,271.927 35.100,271.105 34.875 C 270.283 34.651,269.316 34.173,268.957 33.814 C 268.598 33.455,267.794 33.059,267.172 32.934 C 266.550 32.810,265.737 32.372,265.366 31.962 C 264.994 31.551,264.040 31.095,263.245 30.947 C 262.450 30.799,261.579 30.367,261.310 29.985 C 261.040 29.604,260.203 29.177,259.450 29.036 C 258.697 28.894,257.868 28.523,257.608 28.210 C 257.348 27.897,256.496 27.430,255.714 27.171 C 254.931 26.913,253.661 26.274,252.890 25.751 C 252.119 25.228,251.181 24.800,250.806 24.800 C 250.431 24.800,249.814 24.458,249.436 24.040 C 249.057 23.621,248.148 23.167,247.414 23.029 C 246.681 22.891,245.868 22.523,245.608 22.210 C 245.348 21.897,244.475 21.429,243.668 21.170 C 242.861 20.911,241.918 20.454,241.574 20.154 C 241.230 19.855,240.330 19.399,239.574 19.141 C 238.818 18.883,237.771 18.341,237.246 17.936 C 236.721 17.531,235.963 17.200,235.562 17.200 C 235.160 17.200,234.509 16.859,234.116 16.442 C 233.722 16.024,232.728 15.500,231.906 15.276 C 231.085 15.051,229.935 14.493,229.352 14.034 C 228.769 13.575,228.054 13.200,227.764 13.200 C 227.473 13.200,226.572 12.750,225.762 12.200 C 224.951 11.650,223.907 11.200,223.440 11.200 C 222.974 11.200,222.382 10.862,222.124 10.450 C 221.866 10.037,221.031 9.582,220.268 9.439 C 219.505 9.296,218.668 8.923,218.408 8.610 C 218.148 8.297,217.296 7.830,216.514 7.571 C 215.731 7.313,214.461 6.674,213.690 6.151 C 212.919 5.628,211.981 5.200,211.606 5.200 C 211.231 5.200,210.614 4.858,210.236 4.440 C 209.857 4.021,208.948 3.567,208.214 3.429 C 207.481 3.291,206.661 2.914,206.393 2.591 C 206.125 2.268,205.206 1.794,204.353 1.539 C 203.499 1.283,202.800 0.832,202.800 0.537 C 202.800 0.242,202.427 0.000,201.972 0.000 C 201.342 0.000,201.175 0.215,201.272 0.900 M332.900 210.402 L 332.000 210.774 332.000 240.564 C 332.000 259.992,331.861 270.439,331.600 270.600 C 327.819 272.937,345.148 275.310,352.368 273.445 C 353.789 273.078,358.079 272.604,361.968 272.384 C 365.836 272.165,369.540 271.825,370.200 271.629 C 371.446 271.259,372.254 271.168,383.200 270.162 C 394.289 269.143,397.117 269.033,397.794 269.595 C 398.330 270.040,398.400 276.504,398.400 325.655 L 398.400 381.211 397.100 382.377 C 396.385 383.019,395.233 383.651,394.540 383.782 C 393.847 383.914,393.068 384.277,392.808 384.590 C 392.548 384.903,391.675 385.370,390.868 385.629 C 390.061 385.887,389.031 386.434,388.581 386.843 C 388.130 387.253,387.194 387.701,386.501 387.840 C 385.808 387.978,384.934 388.431,384.558 388.846 C 384.183 389.261,383.568 389.600,383.192 389.600 C 382.816 389.600,382.079 389.931,381.554 390.336 C 381.029 390.741,380.007 391.274,379.282 391.521 C 378.558 391.768,377.450 392.337,376.821 392.785 C 376.191 393.233,375.424 393.600,375.116 393.600 C 374.808 393.600,373.945 394.050,373.200 394.600 C 372.455 395.150,371.544 395.600,371.176 395.600 C 370.809 395.600,370.079 395.935,369.554 396.345 C 369.029 396.755,368.176 397.223,367.659 397.385 C 367.141 397.547,366.081 398.112,365.303 398.640 C 364.525 399.168,363.588 399.600,363.222 399.600 C 362.855 399.600,361.945 400.050,361.200 400.600 C 360.455 401.150,359.542 401.600,359.171 401.600 C 358.801 401.600,358.282 401.861,358.017 402.180 C 357.752 402.498,356.875 402.971,356.068 403.230 C 355.261 403.489,354.330 403.933,354.000 404.217 C 353.670 404.501,352.635 405.038,351.700 405.410 C 350.765 405.782,350.000 406.245,350.000 406.438 C 350.000 406.631,349.190 406.992,348.200 407.242 C 347.210 407.491,346.400 407.856,346.400 408.053 C 346.400 410.097,338.456 410.484,334.825 408.615 C 334.261 408.325,332.478 407.884,330.862 407.635 C 329.245 407.385,327.445 406.940,326.862 406.645 C 326.278 406.350,324.900 405.991,323.800 405.848 C 322.700 405.705,321.146 405.360,320.346 405.081 C 317.424 404.064,317.600 405.097,317.600 388.977 C 317.600 373.663,317.413 371.721,316.059 372.946 C 315.663 373.305,314.503 373.754,313.482 373.945 C 312.460 374.136,311.172 374.589,310.619 374.951 C 310.066 375.313,308.937 375.750,308.110 375.922 C 305.529 376.458,305.612 375.538,305.606 403.473 L 305.600 428.746 304.700 429.020 C 304.205 429.171,303.530 429.521,303.200 429.797 C 302.870 430.073,301.939 430.511,301.132 430.770 C 300.325 431.029,299.455 431.493,299.200 431.800 C 298.945 432.107,298.075 432.568,297.268 432.824 C 296.461 433.079,295.613 433.521,295.384 433.806 C 295.155 434.091,294.228 434.523,293.325 434.766 C 292.421 435.010,291.588 435.454,291.473 435.754 C 291.358 436.054,290.638 436.416,289.873 436.560 C 289.107 436.704,288.058 437.147,287.541 437.546 C 287.023 437.946,286.010 438.473,285.288 438.719 C 284.567 438.965,283.703 439.439,283.370 439.773 C 283.037 440.106,282.052 440.571,281.182 440.805 C 280.312 441.039,279.600 441.390,279.600 441.584 C 279.600 441.779,278.925 442.158,278.100 442.427 C 277.275 442.696,276.187 443.238,275.681 443.631 C 275.176 444.023,274.243 444.459,273.609 444.598 C 272.974 444.737,272.248 445.101,271.996 445.405 C 271.743 445.710,270.875 446.174,270.068 446.438 C 269.261 446.701,268.171 447.250,267.646 447.658 C 267.121 448.066,266.391 448.400,266.024 448.400 C 265.656 448.400,264.745 448.850,264.000 449.400 C 263.255 449.950,262.344 450.400,261.976 450.400 C 261.609 450.400,260.879 450.731,260.354 451.136 C 259.829 451.541,258.807 452.074,258.081 452.322 C 257.356 452.569,256.297 453.138,255.727 453.586 C 255.158 454.034,254.369 454.400,253.975 454.400 C 253.580 454.400,252.982 454.675,252.645 455.012 C 252.309 455.348,251.270 455.893,250.337 456.222 C 249.403 456.552,248.361 457.064,248.020 457.360 C 247.679 457.656,246.725 458.116,245.900 458.380 C 245.075 458.645,244.400 459.014,244.400 459.199 C 244.400 459.384,243.500 459.835,242.400 460.200 C 241.300 460.565,240.400 461.016,240.400 461.200 C 240.400 461.385,239.882 461.650,239.249 461.789 C 238.616 461.928,237.514 462.473,236.800 463.000 C 236.086 463.527,234.996 464.069,234.378 464.205 C 233.761 464.340,233.048 464.701,232.796 465.005 C 232.543 465.310,231.675 465.771,230.868 466.030 C 230.061 466.289,229.130 466.726,228.800 467.000 C 228.470 467.274,227.539 467.711,226.732 467.970 C 225.925 468.229,225.057 468.690,224.804 468.995 C 224.552 469.299,223.839 469.660,223.222 469.795 C 222.604 469.931,221.501 470.482,220.772 471.021 C 220.042 471.559,219.144 472.000,218.776 472.000 C 218.409 472.000,217.679 472.334,217.154 472.742 C 216.629 473.150,215.539 473.699,214.732 473.962 C 213.925 474.226,213.057 474.690,212.804 474.995 C 212.552 475.299,211.826 475.663,211.191 475.802 C 210.557 475.941,209.624 476.377,209.119 476.769 C 208.613 477.162,207.525 477.704,206.700 477.973 C 205.875 478.242,205.200 478.621,205.200 478.815 C 205.200 479.009,204.435 479.387,203.500 479.654 C 200.757 480.438,199.625 482.000,201.800 482.000 C 202.387 482.000,202.800 481.770,202.800 481.445 C 202.800 481.132,203.382 480.780,204.130 480.640 C 204.861 480.502,205.821 480.053,206.263 479.641 C 206.705 479.230,207.618 478.772,208.292 478.624 C 208.966 478.476,209.834 478.005,210.221 477.577 C 210.607 477.150,211.311 476.800,211.784 476.800 C 212.257 476.800,213.242 476.359,213.972 475.821 C 214.701 475.282,215.804 474.731,216.422 474.595 C 217.039 474.460,217.752 474.099,218.004 473.795 C 218.257 473.490,219.125 473.026,219.932 472.762 C 220.739 472.499,221.829 471.950,222.354 471.542 C 222.879 471.134,223.619 470.800,224.000 470.800 C 224.381 470.800,225.121 470.469,225.646 470.064 C 226.171 469.659,227.193 469.126,227.919 468.878 C 228.644 468.631,229.703 468.062,230.273 467.614 C 230.842 467.166,231.644 466.800,232.054 466.800 C 232.464 466.800,233.151 466.449,233.579 466.021 C 234.007 465.593,235.097 465.043,235.999 464.800 C 236.902 464.557,237.734 464.115,237.848 463.818 C 237.962 463.522,238.674 463.163,239.429 463.021 C 240.185 462.879,241.117 462.444,241.502 462.054 C 241.886 461.664,242.975 461.123,243.921 460.850 C 244.868 460.578,245.735 460.113,245.849 459.817 C 245.962 459.521,246.648 459.167,247.373 459.031 C 248.097 458.896,249.013 458.428,249.407 457.992 C 249.801 457.556,250.511 457.200,250.984 457.200 C 251.457 457.200,252.442 456.759,253.172 456.221 C 253.901 455.682,255.004 455.131,255.622 454.995 C 256.239 454.860,256.952 454.499,257.204 454.195 C 257.457 453.890,258.325 453.426,259.132 453.162 C 259.939 452.899,261.029 452.350,261.554 451.942 C 262.079 451.534,262.819 451.200,263.200 451.200 C 263.581 451.200,264.321 450.869,264.846 450.464 C 265.371 450.059,266.393 449.526,267.119 449.278 C 267.844 449.031,268.903 448.462,269.473 448.014 C 270.042 447.566,270.809 447.200,271.176 447.200 C 271.544 447.200,272.455 446.750,273.200 446.200 C 273.945 445.650,274.960 445.200,275.455 445.200 C 275.950 445.200,276.590 444.877,276.877 444.483 C 277.165 444.088,278.175 443.538,279.121 443.260 C 280.068 442.983,280.935 442.513,281.049 442.217 C 281.162 441.921,281.883 441.561,282.650 441.417 C 283.417 441.273,284.354 440.846,284.732 440.468 C 285.110 440.090,286.161 439.558,287.068 439.287 C 287.975 439.015,288.820 438.524,288.946 438.196 C 289.072 437.868,289.552 437.600,290.014 437.600 C 290.941 437.600,292.294 436.963,293.120 436.137 C 293.416 435.842,293.980 435.600,294.375 435.600 C 294.769 435.600,295.558 435.234,296.127 434.786 C 296.697 434.338,297.756 433.769,298.481 433.522 C 299.207 433.274,300.229 432.741,300.754 432.336 C 301.279 431.931,301.989 431.600,302.332 431.600 C 302.968 431.600,305.958 429.732,306.494 429.001 C 306.656 428.781,306.791 417.468,306.794 403.862 C 306.801 376.090,306.681 377.212,309.702 376.645 C 310.424 376.509,311.652 376.057,312.431 375.639 C 313.210 375.222,314.557 374.817,315.424 374.740 L 317.000 374.600 317.200 389.458 C 317.435 406.920,317.107 405.739,321.835 406.139 C 323.651 406.293,325.085 406.628,325.438 406.981 C 326.017 407.560,326.673 407.718,330.567 408.217 C 331.648 408.356,332.940 408.735,333.436 409.060 C 333.932 409.386,335.533 409.821,336.992 410.027 C 338.452 410.234,340.187 410.683,340.848 411.025 C 341.965 411.603,342.172 411.588,343.752 410.823 C 344.687 410.371,345.621 410.000,345.826 410.000 C 346.032 409.999,346.723 409.549,347.362 409.000 C 348.001 408.450,348.821 408.000,349.185 408.000 C 349.548 408.000,350.455 407.550,351.200 407.000 C 351.945 406.450,352.856 406.000,353.224 406.000 C 353.591 406.000,354.321 405.669,354.846 405.264 C 355.371 404.859,356.418 404.317,357.174 404.059 C 357.930 403.801,358.830 403.345,359.174 403.046 C 359.518 402.746,360.474 402.285,361.297 402.021 C 362.120 401.756,362.930 401.319,363.097 401.050 C 363.264 400.780,364.165 400.337,365.100 400.064 C 366.035 399.791,366.800 399.409,366.800 399.215 C 366.800 399.021,367.475 398.645,368.300 398.380 C 369.125 398.116,370.082 397.654,370.426 397.354 C 370.770 397.055,371.670 396.603,372.426 396.350 C 373.182 396.096,374.160 395.578,374.600 395.197 C 375.040 394.816,375.926 394.380,376.568 394.228 C 377.211 394.075,378.180 393.602,378.722 393.175 C 379.264 392.749,380.019 392.400,380.400 392.400 C 380.781 392.400,381.536 392.051,382.079 391.623 C 382.622 391.196,383.817 390.547,384.733 390.180 C 385.650 389.813,386.400 389.355,386.400 389.162 C 386.400 388.969,387.198 388.611,388.173 388.365 C 389.148 388.120,390.042 387.667,390.160 387.359 C 390.278 387.052,390.696 386.797,391.087 386.794 C 391.479 386.791,392.250 386.529,392.800 386.212 C 393.350 385.895,394.700 385.207,395.800 384.683 C 396.900 384.158,398.047 383.430,398.349 383.065 C 398.651 382.699,399.146 382.400,399.449 382.400 C 399.914 382.400,400.000 373.556,400.000 325.450 L 400.000 268.500 398.750 268.250 C 398.063 268.113,394.328 267.989,390.450 267.975 C 386.572 267.962,382.050 267.806,380.400 267.630 C 378.750 267.454,376.500 267.465,375.400 267.654 C 374.300 267.844,369.890 268.181,365.600 268.404 C 361.310 268.626,355.730 269.082,353.200 269.417 C 350.670 269.751,345.810 270.197,342.400 270.408 C 338.990 270.618,335.717 270.901,335.126 271.037 C 333.545 271.400,333.560 271.715,333.686 239.600 L 333.800 210.600 336.400 210.733 C 337.830 210.806,340.260 211.128,341.800 211.450 C 343.516 211.808,347.621 212.085,352.400 212.166 C 356.690 212.239,359.030 212.237,357.600 212.161 C 352.967 211.915,345.037 211.148,343.600 210.807 C 341.368 210.277,333.887 209.994,332.900 210.402 M360.915 212.648 C 361.635 213.368,366.266 213.982,370.600 213.932 L 375.400 213.876 372.200 213.576 C 370.440 213.411,367.830 213.082,366.400 212.846 C 363.524 212.370,360.529 212.262,360.915 212.648 M263.600 276.035 C 257.072 276.452,249.273 277.125,245.200 277.625 C 243.550 277.827,238.330 278.158,233.600 278.361 C 228.870 278.564,224.498 278.923,223.885 279.161 C 223.272 279.398,219.312 279.782,215.085 280.015 C 206.740 280.474,200.236 280.975,194.600 281.593 C 192.620 281.810,187.546 282.169,183.324 282.390 C 176.103 282.769,172.534 283.382,171.427 284.432 C 170.707 285.115,171.565 285.238,179.779 285.628 C 186.032 285.925,188.612 286.207,190.328 286.781 C 192.084 287.369,194.280 287.596,200.000 287.782 C 206.970 288.009,210.117 287.820,216.200 286.809 C 217.520 286.589,221.699 286.225,225.487 286.000 C 229.275 285.774,232.825 285.419,233.374 285.210 C 233.924 285.001,238.295 284.547,243.087 284.201 C 247.879 283.855,252.430 283.408,253.200 283.207 C 253.970 283.007,257.930 282.640,262.000 282.392 C 266.070 282.144,270.570 281.700,272.000 281.404 C 275.205 280.742,277.860 280.489,286.762 279.996 C 291.774 279.719,293.982 279.441,294.648 279.005 C 295.156 278.672,295.916 278.400,296.337 278.400 C 296.758 278.400,297.313 278.145,297.572 277.834 C 298.182 277.099,296.357 276.925,282.418 276.390 C 276.598 276.166,271.198 275.917,270.418 275.837 C 269.638 275.757,266.570 275.846,263.600 276.035 M0.000 382.000 C 0.000 382.220,0.201 382.400,0.447 382.400 C 0.693 382.400,1.509 382.940,2.261 383.600 C 3.013 384.260,3.954 384.800,4.352 384.800 C 4.750 384.800,5.404 385.163,5.805 385.606 C 6.207 386.049,7.213 386.521,8.043 386.653 C 8.872 386.786,9.644 387.139,9.759 387.437 C 9.874 387.736,10.772 388.183,11.756 388.431 C 12.740 388.679,13.639 389.124,13.752 389.420 C 13.866 389.716,14.698 390.157,15.601 390.400 C 16.503 390.643,17.615 391.215,18.071 391.671 C 19.080 392.680,23.783 392.566,25.961 391.479 C 26.678 391.122,28.735 390.629,30.532 390.384 C 32.329 390.139,34.415 389.647,35.167 389.291 C 35.995 388.900,37.628 388.636,39.304 388.622 L 42.073 388.600 42.137 395.839 C 42.203 403.453,42.416 404.400,44.062 404.400 C 44.481 404.400,44.928 404.668,45.054 404.996 C 45.180 405.324,46.029 405.810,46.941 406.076 C 47.854 406.342,48.736 406.780,48.903 407.050 C 49.070 407.319,49.880 407.756,50.703 408.021 C 51.526 408.285,52.482 408.746,52.826 409.046 C 53.170 409.345,54.070 409.801,54.826 410.059 C 55.582 410.317,56.629 410.859,57.154 411.264 C 57.679 411.669,58.507 412.000,58.996 412.000 C 59.484 412.000,60.369 412.450,60.962 413.000 C 61.556 413.550,62.425 414.000,62.895 414.000 C 63.364 414.000,64.180 414.405,64.708 414.900 C 65.947 416.062,69.124 416.061,71.416 414.898 C 72.287 414.457,73.990 413.964,75.200 413.804 C 76.410 413.645,77.720 413.230,78.112 412.884 C 78.504 412.538,80.014 412.111,81.469 411.936 C 82.924 411.761,84.522 411.350,85.021 411.023 C 85.519 410.696,87.045 410.249,88.412 410.029 C 89.778 409.809,91.318 409.352,91.834 409.014 C 93.586 407.867,93.600 407.943,93.600 418.386 L 93.600 428.373 95.084 429.986 C 95.911 430.887,96.938 431.600,97.406 431.600 C 97.867 431.600,98.855 432.050,99.600 432.600 C 100.345 433.150,101.256 433.600,101.624 433.600 C 101.991 433.600,102.758 433.966,103.327 434.414 C 103.897 434.862,104.956 435.429,105.681 435.674 C 106.407 435.919,107.322 436.452,107.716 436.860 C 108.109 437.267,108.958 437.600,109.602 437.600 C 110.354 437.600,110.921 437.880,111.191 438.383 C 111.438 438.844,112.223 439.273,113.105 439.427 C 113.927 439.571,114.780 439.910,115.000 440.179 C 115.574 440.883,117.027 441.600,117.877 441.600 C 118.279 441.600,118.827 441.951,119.095 442.380 C 119.363 442.809,120.261 443.287,121.091 443.441 C 121.921 443.595,122.850 444.075,123.155 444.507 C 123.821 445.449,127.053 445.290,127.793 444.278 C 128.036 443.946,129.084 443.547,130.122 443.391 C 131.160 443.235,132.412 442.792,132.905 442.405 C 133.397 442.018,134.560 441.574,135.488 441.418 C 136.417 441.262,137.638 440.771,138.202 440.327 C 138.766 439.883,139.986 439.425,140.914 439.309 C 141.841 439.192,142.960 438.784,143.400 438.401 C 143.840 438.017,144.991 437.584,145.958 437.438 C 146.925 437.292,148.213 436.818,148.820 436.386 C 149.427 435.954,150.364 435.600,150.902 435.600 C 151.440 435.600,152.688 435.171,153.675 434.646 C 159.694 431.445,159.600 431.242,159.600 447.401 C 159.600 461.153,159.782 463.200,161.003 463.200 C 161.345 463.200,161.728 463.468,161.854 463.796 C 161.979 464.123,162.829 464.591,163.741 464.835 C 164.654 465.078,165.701 465.598,166.069 465.988 C 166.436 466.379,167.420 466.827,168.255 466.984 C 169.090 467.141,170.009 467.606,170.298 468.018 C 170.587 468.431,171.435 468.883,172.184 469.023 C 172.932 469.164,173.638 469.522,173.752 469.818 C 173.866 470.115,174.698 470.557,175.601 470.800 C 176.503 471.043,177.593 471.593,178.021 472.021 C 178.449 472.449,179.125 472.800,179.522 472.800 C 179.920 472.800,180.842 473.241,181.572 473.779 C 182.301 474.318,183.435 474.876,184.090 475.020 C 184.745 475.164,185.623 475.623,186.041 476.041 C 186.458 476.458,187.222 476.800,187.738 476.800 C 188.254 476.800,188.977 477.132,189.344 477.539 C 189.712 477.945,190.709 478.486,191.559 478.740 C 192.409 478.995,193.330 479.474,193.604 479.805 C 193.879 480.136,194.801 480.519,195.652 480.655 C 196.577 480.803,197.200 481.123,197.200 481.451 C 197.200 481.753,197.485 482.000,197.833 482.000 C 198.577 482.000,198.408 481.187,197.576 480.764 C 197.259 480.603,195.920 479.988,194.600 479.398 C 193.280 478.809,191.750 478.090,191.200 477.802 C 190.650 477.513,187.950 476.165,185.200 474.805 C 182.450 473.445,179.840 472.134,179.400 471.892 C 178.960 471.650,176.938 470.610,174.907 469.581 C 172.876 468.552,170.985 467.520,170.705 467.287 C 170.425 467.055,169.657 466.736,168.998 466.578 C 168.339 466.421,167.518 466.049,167.174 465.751 C 166.830 465.454,165.939 464.998,165.196 464.739 C 164.452 464.479,163.071 463.746,162.126 463.108 L 160.410 461.950 160.305 446.918 C 160.185 429.741,160.294 430.251,157.105 431.884 C 156.167 432.365,154.860 432.872,154.200 433.010 C 153.540 433.149,152.699 433.534,152.331 433.865 C 151.963 434.197,150.883 434.569,149.931 434.694 C 148.979 434.818,147.790 435.238,147.288 435.627 C 146.787 436.015,145.617 436.458,144.688 436.609 C 143.760 436.761,142.460 437.206,141.800 437.599 C 141.140 437.992,139.985 438.444,139.234 438.603 C 138.483 438.762,137.061 439.322,136.075 439.846 C 135.088 440.371,133.796 440.800,133.202 440.800 C 132.609 440.800,131.820 441.136,131.447 441.548 C 131.075 441.959,129.964 442.406,128.978 442.541 C 127.992 442.676,126.656 443.178,126.010 443.656 C 125.101 444.328,124.708 444.422,124.282 444.068 C 123.979 443.817,122.945 443.334,121.985 442.995 C 121.025 442.656,119.961 442.136,119.620 441.840 C 119.279 441.544,118.325 441.084,117.500 440.820 C 116.675 440.555,116.000 440.179,116.000 439.984 C 116.000 439.790,115.301 439.443,114.447 439.213 C 113.592 438.982,112.678 438.535,112.415 438.218 C 112.151 437.900,111.275 437.427,110.468 437.165 C 109.661 436.903,108.550 436.378,108.000 435.997 C 107.450 435.616,106.550 435.167,106.000 434.997 C 105.450 434.828,104.571 434.355,104.046 433.945 C 103.521 433.535,102.781 433.200,102.400 433.200 C 102.019 433.200,101.279 432.866,100.754 432.458 C 100.229 432.050,99.155 431.506,98.366 431.249 C 97.577 430.992,96.433 430.261,95.824 429.625 L 94.716 428.468 94.658 418.402 C 94.604 409.062,94.546 408.296,93.851 407.788 C 92.985 407.155,90.945 407.411,89.942 408.279 C 89.580 408.592,88.096 409.017,86.644 409.222 C 85.192 409.428,83.331 409.957,82.508 410.398 C 81.685 410.839,80.379 411.204,79.606 411.209 C 78.833 411.214,77.390 411.588,76.400 412.041 C 75.410 412.494,73.522 413.041,72.205 413.256 C 70.888 413.472,69.523 413.907,69.173 414.224 C 68.362 414.958,66.390 414.963,64.932 414.234 C 64.310 413.922,63.350 413.474,62.800 413.237 C 62.250 413.000,61.530 412.636,61.200 412.428 C 60.622 412.064,59.617 411.558,56.200 409.909 C 55.320 409.484,54.330 408.969,54.000 408.765 C 53.670 408.561,52.950 408.196,52.400 407.954 C 51.850 407.712,51.085 407.353,50.700 407.157 C 50.315 406.961,49.685 406.650,49.300 406.468 C 48.915 406.285,47.970 405.808,47.200 405.407 C 46.430 405.007,45.260 404.406,44.600 404.071 C 42.811 403.164,42.813 403.175,42.800 395.200 C 42.786 386.516,42.767 386.460,40.126 387.107 C 39.067 387.367,37.030 387.696,35.600 387.838 C 34.170 387.981,32.460 388.414,31.800 388.801 C 31.086 389.220,29.431 389.583,27.713 389.698 C 26.077 389.808,24.412 390.162,23.871 390.517 C 22.030 391.723,20.283 391.757,17.911 390.635 C 16.708 390.066,15.589 389.600,15.424 389.600 C 15.260 389.600,14.669 389.240,14.109 388.800 C 13.550 388.360,12.829 388.000,12.508 388.000 C 12.186 388.000,11.446 387.664,10.862 387.252 C 10.278 386.841,9.350 386.368,8.800 386.200 C 8.250 386.032,7.339 385.571,6.776 385.174 C 6.212 384.778,5.300 384.340,4.750 384.202 C 4.199 384.064,3.130 383.422,2.374 382.776 C 0.985 381.589,0.000 381.267,0.000 382.000 " stroke="none" fill="#fbbf93" fill-rule="evenodd"></path></g></svg>